<?xml version="1.0" encoding="UTF-8" standalone="no"?>
<!DOCTYPE svg PUBLIC "-//W3C//DTD SVG 1.1//EN" "http://www.w3.org/Graphics/SVG/1.1/DTD/svg11.dtd">
<svg width="100%" height="100%" viewBox="0 0 5906 5906" version="1.1" xmlns="http://www.w3.org/2000/svg" xmlns:xlink="http://www.w3.org/1999/xlink" xml:space="preserve" xmlns:serif="http://www.serif.com/" style="fill-rule:evenodd;clip-rule:evenodd;stroke-linecap:round;stroke-linejoin:round;stroke-miterlimit:1.5;">
    <rect x="-0" y="0" width="5905.51" height="5905.51"/>
    <g>
        <g transform="matrix(1.03443,-1.06471,1.06471,1.03443,-3245.49,3042.14)">
            <path d="M236.22,0L236.22,1415.4C236.22,1420.42 237.129,1426.47 236.22,1431.4C235.51,1435.25 232.091,1439.48 230.208,1442.87C225.901,1450.62 221.617,1458.37 217.353,1466.14C202.15,1493.85 187.13,1521.66 172.159,1549.5C123.129,1640.65 74.358,1731.95 25.503,1823.2C-61.436,1985.58 -148.271,2148.06 -231.28,2312.5C-299.617,2447.87 -365.723,2584.59 -424.265,2724.52C-471.727,2837.97 -516.177,2954.55 -541.653,3075.17C-548.598,3108.05 -553.992,3141.34 -556.365,3174.88C-557.043,3184.46 -557.467,3194.07 -557.573,3203.67C-557.619,3207.82 -558.452,3213.47 -557.498,3217.52C-556.813,3220.42 -553.734,3224.15 -552.206,3226.71C-548.546,3232.86 -544.633,3238.82 -540.702,3244.79C-521.663,3273.7 -498.064,3298.41 -471.155,3320.12C-428.99,3354.13 -381.652,3381.23 -335.405,3409.18C-284.316,3440.05 -233.839,3471.95 -186.472,3508.36C-30.602,3628.18 79.214,3792.73 167.529,3966.27C182.292,3995.28 196.7,4024.47 212.086,4053.16C217.131,4062.57 222.282,4071.92 227.593,4081.18C230.054,4085.47 233.622,4089.97 235.427,4094.56C237.251,4099.2 236.22,4105.39 236.22,4110.27L236.22,5905.51" style="fill:none;stroke:white;stroke-width:1.4px;"/>
        </g>
        <g transform="matrix(1.03443,-1.06471,1.06471,1.03443,-2512.43,2287.63)">
            <path d="M236.22,0L236.22,715.698C236.22,724.725 237.441,734.714 236.197,743.645C235.645,747.614 233.218,752.049 231.878,755.84C228.75,764.683 225.628,773.528 222.477,782.364C211.773,812.385 200.694,842.281 188.265,871.638C150.397,961.081 99.9,1043.54 42.944,1122.02C-13.499,1199.78 -75.887,1273.38 -129.737,1353.01C-166.894,1407.95 -197.662,1468.13 -226.678,1527.64C-244.978,1565.17 -262.238,1603.21 -278.621,1641.61C-283.245,1652.45 -287.798,1663.32 -292.283,1674.22C-294.853,1680.46 -298.459,1687.08 -299.816,1693.73C-302.364,1706.2 -302.615,1719.64 -304.063,1732.31C-306.869,1756.87 -309.85,1781.41 -312.922,1805.95C-322.886,1885.52 -333.7,1964.99 -344.003,2044.52C-376.999,2299.25 -406.804,2556.16 -400.25,2813.48C-397.68,2914.36 -388.164,3014.61 -375.197,3114.63C-369.401,3159.34 -363.185,3204.01 -358.738,3248.88C-356.71,3269.35 -353.431,3290.81 -353.977,3311.39C-354.237,3321.19 -357.035,3331.27 -358.342,3340.99C-360.545,3357.37 -362.226,3373.81 -363.909,3390.25C-373.307,3482.05 -387.001,3572.7 -406.285,3662.97C-416.227,3709.51 -427.072,3755.84 -437.728,3802.22C-443.653,3828 -450.588,3853.87 -455.15,3879.93C-457.555,3893.67 -457.308,3908.08 -457.921,3921.98C-458.889,3943.96 -459.65,3965.94 -460.172,3987.92C-461.654,4050.22 -462.815,4112.49 -461.483,4174.8C-460.992,4197.75 -459.687,4220.69 -459.19,4243.64C-457.362,4327.9 -455.524,4413.81 -436.359,4496.3C-429.414,4526.19 -419.988,4556.49 -403.48,4582.61C-398.154,4591.04 -391.339,4601.95 -383.012,4607.77C-379.197,4610.43 -373.546,4611.66 -369.194,4613.21C-357.786,4617.26 -346.201,4620.81 -334.519,4623.99C-293.714,4635.09 -251.848,4641.85 -210.095,4648.23C-100.528,4664.99 11.628,4679.76 111.395,4731.32C146.069,4749.24 178.561,4771.31 207.654,4797.35C214.605,4803.57 221.361,4810.01 227.913,4816.65C230.243,4819.01 235.322,4822.66 236.22,4825.97L236.22,5905.51" style="fill:none;stroke:white;stroke-width:1.4px;"/>
        </g>
        <g transform="matrix(1.03443,-1.06471,1.06471,1.03443,-1779.36,1533.11)">
            <path d="M236.22,0C236.22,18.554 236.945,37.272 236.164,55.809C235.094,81.233 233.096,106.548 232.682,132.014C232.045,171.162 233.238,210.306 235.609,249.381C238.455,296.271 242.91,343.053 245.088,389.985C246.094,411.659 247.797,433.854 246.438,455.523C244.148,492.051 236.457,528.055 223.802,562.392C188.314,658.685 118.577,739.33 46.474,810.396C24.512,832.041 1.893,853.013 -21.136,873.517C-32.23,883.394 -44.369,892.582 -54.91,903.026C-61.919,909.971 -67.289,918.856 -72.975,926.872C-83.544,941.771 -93.786,956.901 -103.699,972.244C-236.13,1177.22 -305.077,1417.04 -326.177,1658.84C-336.34,1775.31 -336.103,1893.13 -322.368,2009.3C-308.003,2130.8 -277.501,2250.24 -226.648,2361.72C-206.298,2406.33 -184.283,2452.79 -154.815,2492.17C-125.649,2531.14 -88.601,2563.61 -48.87,2591.44C32.925,2648.73 125.788,2686.79 215.4,2729.73C276.796,2759.14 343.81,2791.41 387.749,2845.26C411.632,2874.54 425.371,2909.96 426.443,2947.81C427.169,2973.44 422.581,2999.18 420.158,3024.63C416.148,3066.77 413.234,3109.05 412.662,3151.38C411.149,3263.38 436.136,3372.24 469.185,3478.62C484.534,3528.03 501.529,3577.12 513.076,3627.61C522.415,3668.44 527.959,3710.93 521.504,3752.65C514.351,3798.89 491.839,3840.31 460.578,3874.72C443.908,3893.07 424.868,3908.93 406.204,3925.17C379.184,3948.68 351.926,3971.91 324.486,3994.93C146.139,4144.53 -40.855,4283.18 -221.481,4429.92C-285.007,4481.53 -350.477,4534.01 -403.949,4596.38C-427.375,4623.7 -453.93,4658.08 -454.04,4695.95C-454.078,4709 -450.423,4721.66 -444.11,4733.03C-442.564,4735.82 -440.325,4741.28 -437.532,4742.98C-434.572,4744.78 -429.585,4745.28 -426.239,4746.26C-418.553,4748.49 -410.872,4750.74 -403.207,4753.04C-379.117,4760.28 -355.192,4768.1 -331.744,4777.23C-226.594,4818.15 -139.491,4887.8 -70.721,4976.82C-15.423,5048.39 27.255,5128.16 67.512,5208.85C93.163,5260.26 118.411,5311.88 143.548,5363.54C164.399,5406.4 185.163,5449.3 205.937,5492.2C212.751,5506.27 219.566,5520.34 226.385,5534.4C229.348,5540.52 234.176,5547.43 235.881,5553.99C236.816,5557.58 236.22,5561.98 236.22,5565.65L236.22,5905.51" style="fill:none;stroke:white;stroke-width:1.4px;"/>
        </g>
        <g transform="matrix(1.03443,-1.06471,1.06471,1.03443,-1046.3,778.595)">
            <path d="M263.29,-50.38C281.275,7.54 304.22,65.781 311.73,126.174C322.756,214.835 332.977,316.94 290.65,399.455C270.91,437.939 239.604,468.253 203.268,491.166C193.719,497.188 183.873,502.732 173.834,507.89C167.039,511.381 159.364,514.048 153.475,518.963C131.294,537.476 110.587,558.347 90.172,578.76C30.815,638.113 -22.473,703.411 -66.88,774.713C-214.749,1012.14 -251.345,1299.81 -215.075,1573.54C-211.367,1601.52 -206.908,1629.4 -201.716,1657.14C-198.995,1671.68 -196.975,1686.93 -192.416,1701.03C-184.354,1725.96 -173.719,1750.4 -163.858,1774.66C-143.077,1825.79 -120.579,1876.26 -95.525,1925.44C-52.469,2009.97 -2.566,2093.56 72.675,2153.2C153.423,2217.2 245.154,2267.7 333.011,2321.02C356.826,2335.47 380.615,2349.97 404.338,2364.57C419.2,2373.72 434.321,2382.35 447.507,2393.89C481.638,2423.77 510.129,2460.55 538.358,2495.83C578.544,2546.06 617.225,2597.48 657.804,2647.4C683.794,2679.37 710.207,2712.54 741.638,2739.43C755.871,2751.61 772.172,2761.72 788.156,2771.43C828.471,2795.9 872.04,2814.76 918.384,2824.12C961.321,2832.8 1010.86,2828.48 1049.39,2852.19C1059.87,2858.63 1069.1,2866.93 1077,2876.34C1083,2883.48 1089.24,2891.52 1093.16,2900.04C1098.63,2911.91 1102.23,2925.16 1106.03,2937.64C1115.37,2968.32 1122.22,2999.74 1126.81,3031.47C1144.77,3155.57 1128.58,3282.9 1092.69,3402.39C1069.54,3479.49 1038.01,3553.97 1000.58,3625.19C983.766,3657.19 966.385,3689.55 946.288,3719.63C876.885,3823.49 786.452,3914.08 694.786,3998.21C548.209,4132.74 388.601,4252.45 226.504,4367.48C150.302,4421.55 72.923,4474.05 -2.275,4529.52C-59.804,4571.96 -119.603,4616.79 -161.303,4675.79C-203.423,4735.38 -218.666,4805.14 -223.846,4877.01C-227.513,4927.89 -226.682,4979.05 -223.716,5029.94C-217.594,5134.97 -202.315,5239.49 -182.101,5342.68C-175.571,5376.01 -168.463,5409.24 -160.798,5442.33C-157.204,5457.85 -154.48,5474.19 -149.515,5489.33C-145.683,5501.01 -138.698,5512.18 -133.167,5523.13C-122.029,5545.17 -110.661,5567.1 -99.202,5588.97C-66.567,5651.28 -33.131,5713.16 1.905,5774.16C58.434,5872.58 118.097,5970.43 188.512,6059.67C211.98,6089.41 236.793,6118.77 265.36,6143.79C274.946,6152.19 285.081,6160.29 296.278,6166.45C299.998,6168.51 303.891,6170.39 307.988,6171.56C309.025,6171.85 313.994,6171.94 313.628,6171.79" style="fill:none;stroke:white;stroke-width:1.4px;"/>
        </g>
        <g transform="matrix(1.03443,-1.06471,1.06471,1.03443,-313.236,24.0792)">
            <path d="M122.602,-206.195C118.102,-192.154 111.603,-177.595 108.72,-163.154C107.422,-156.652 107.956,-149.273 108.015,-142.672C108.159,-126.353 109.764,-110.058 112.716,-94.01C125.419,-24.96 162.26,37.268 205.822,91.314C221.902,111.263 239.086,130.311 257,148.626C267.529,159.39 280.598,169.343 289.391,181.539C318.707,222.204 324.721,274.451 315.144,322.698C303.417,381.774 271.496,435.462 235.177,482.661C167.991,569.973 81.691,640.844 -4.276,708.777C-37.957,735.392 -72.216,761.406 -104.689,789.505C-120.472,803.163 -139.882,818.29 -150.844,836.42C-155.688,844.432 -158.43,854.625 -161.61,863.397C-168.638,882.778 -174.584,902.556 -179.22,922.646C-202.36,1022.9 -191.184,1131.08 -141.945,1221.93C-86.439,1324.35 -0.927,1408.49 84.948,1485.6C113.806,1511.51 143.217,1536.8 172.634,1562.07C192.919,1579.5 212.828,1597.46 233.906,1613.94C268.472,1640.95 305.666,1664.23 341.762,1689.09C371.693,1709.7 400.515,1731.64 431.342,1750.96C491.363,1788.57 554.677,1820.48 617.495,1853.07C637.925,1863.67 658.314,1874.35 678.511,1885.38C686.158,1889.56 697.495,1893.52 703.518,1899.9C709.898,1906.66 714.259,1918.03 718.222,1926.35C730.768,1952.7 738.404,1981.16 742.163,2010.05C750.955,2077.61 737.713,2145.57 729.184,2212.48C716.383,2312.9 702.647,2413.2 686.563,2513.16C644.563,2774.17 587.591,3033.16 512.321,3286.65C466.807,3439.93 412.82,3590.01 357.78,3740.05C313.358,3861.15 266.571,3981.41 224.085,4103.21C188.767,4204.46 154.378,4308.4 141.748,4415.36C136.699,4458.12 136.781,4501.27 138.644,4544.24C141.448,4608.93 153.046,4672.52 159.158,4736.89C167.047,4819.98 167.665,4904.06 179.768,4986.7C183.599,5012.86 189.878,5038.41 195.628,5064.18C202.273,5093.97 208.378,5123.87 214.496,5153.77C238.154,5269.39 262.323,5384.93 293.521,5498.8C318.345,5589.4 346.765,5679.74 385.42,5765.49C407.942,5815.46 434.019,5867.37 472.521,5907.15C481.852,5916.79 492.143,5925.7 503.756,5932.5C510.838,5936.65 518.444,5939.98 526.444,5941.88C575.918,5953.65 610.699,5903.53 630.375,5865.89C634.215,5858.54 637.797,5851.06 641.178,5843.5C645.751,5833.26 649.958,5822.87 653.892,5812.37C659.139,5798.38 663.904,5784.21 668.321,5769.93C674.943,5748.52 680.79,5726.88 686.113,5705.12C687.418,5699.78 688.692,5694.43 689.935,5689.08C690.827,5685.24 693.251,5681.12 691.892,5677.42C691.723,5676.96 684.914,5678.88 684.27,5679.07C676.819,5681.31 668.455,5685.1 662.59,5690.3C638.668,5711.48 618.98,5738.81 600.876,5764.91C585.45,5787.16 571.151,5810.18 557.573,5833.59" style="fill:none;stroke:white;stroke-width:1.4px;"/>
        </g>
        <g transform="matrix(1.03443,-1.06471,1.06471,1.03443,419.827,-730.436)">
            <path d="M264.228,-28.299C301.526,68.588 364.531,152.706 422.984,237.512C447.841,273.575 473.431,310.026 493.751,348.91C513.679,387.046 527.871,428.608 534.704,471.103C544.255,530.503 538.821,591.35 525.131,649.67C509.576,715.93 484.253,779.676 465.14,844.941C456.097,875.824 448.052,907.171 443.899,939.13C441.485,957.708 442.128,976.508 439.377,995.004C434.243,1029.53 425.541,1064.1 416.08,1097.66C393.304,1178.46 363.831,1257.21 339.953,1337.68C326.148,1384.2 313.341,1431.5 306.996,1479.7C304.017,1502.33 302.236,1525.67 305.426,1548.38C307.261,1561.44 311.709,1573.92 315.486,1586.51C320.505,1603.24 325.423,1619.99 330.166,1636.8C344.126,1686.26 356.481,1736.18 366.413,1786.61C396.855,1941.19 403.552,2099.17 395.692,2256.27C382.407,2521.86 333.337,2784.77 282.889,3045.34C265.344,3135.96 247.246,3226.5 231.555,3317.47C217.435,3399.33 204.893,3481.81 203.349,3565.01C202.898,3589.32 204.93,3612.95 211.852,3636.35C225.524,3682.57 253.795,3722.59 275.846,3764.96C296.389,3804.43 311.641,3846.08 320.478,3889.73C336.957,3971.12 332.093,4053.72 332.415,4136.15C332.672,4202.21 337.078,4268.83 351.872,4333.36C361.752,4376.45 378.032,4417.76 392.877,4459.32C414.213,4519.05 435.659,4578.75 455.513,4638.99C477.981,4707.16 498.242,4776.07 514.573,4845.98C521.648,4876.27 528.945,4906.89 533.736,4937.64C540.163,4978.89 543.025,5020.88 547.876,5062.34C550.241,5082.56 552.708,5102.78 555.9,5122.88C557.32,5131.82 560.539,5141.39 561.054,5150.38C561.435,5157.03 557.768,5165.64 556.218,5172.13C552.317,5188.47 548.07,5204.72 543.532,5220.9C528.888,5273.1 512.961,5324.94 497.98,5377.05C450.822,5541.06 407.754,5706.2 363.746,5871.07" style="fill:none;stroke:white;stroke-width:1.4px;"/>
        </g>
        <g transform="matrix(1.03443,-1.06471,1.06471,1.03443,1152.89,-1484.95)">
            <path d="M236.22,0L236.22,531.776C236.22,552.565 233.923,574.855 236.495,595.479C238.19,609.069 241.411,622.65 243.864,636.127C248.934,663.975 254.055,691.815 259.285,719.634C274.865,802.516 291.263,885.297 310.905,967.325C336.766,1075.33 368.897,1181.96 416.828,1282.4C433.31,1316.94 451.406,1350.67 470.135,1384.03C475.38,1393.37 480.672,1402.69 485.986,1412C488.562,1416.51 491.9,1420.57 491.799,1425.87C491.399,1447.02 486.477,1468.25 481.733,1488.76C475.027,1517.76 467.018,1546.46 458.727,1575.04C435.23,1656.06 409.161,1736.32 383.554,1816.68C351.077,1918.6 318.577,2020.56 289.216,2123.44C268.512,2195.98 247.682,2269.49 236.518,2344.23C228.507,2397.86 231.176,2453.1 229.357,2507.2C227.228,2570.53 225.714,2634.67 235.173,2697.53C243.275,2751.38 261.13,2803.27 297.293,2844.83C323.032,2874.41 355.369,2896.93 383.315,2924.22C403.95,2944.37 421.398,2967.37 433.475,2993.66C452.739,3035.59 461.407,3082.44 473.346,3126.76C488.324,3182.37 506.226,3237.14 525.344,3291.44C554.977,3375.62 587.756,3458.64 617.532,3542.76C642.775,3614.08 666.159,3686.49 680.281,3760.94C692.795,3826.9 694.203,3894.03 694.198,3961C694.19,4066.88 689.439,4172.89 682.764,4278.55C680.477,4314.75 677.822,4350.94 674.465,4387.06C672.839,4404.55 672.97,4423.96 668.852,4441.04C667.526,4446.55 664.333,4452.16 662.174,4457.4C658.099,4467.28 653.985,4477.15 649.841,4487.01C635.717,4520.61 621.266,4554.07 606.606,4587.44C563.223,4686.2 518.816,4784.49 477.963,4884.34C408.304,5054.58 348.293,5228.17 297.071,5404.83C282.977,5453.43 269.222,5502.14 255.684,5550.9C251.319,5566.63 246.963,5582.35 242.592,5598.08C240.492,5605.63 237.029,5613.83 236.22,5621.63C235.143,5632.04 236.22,5643.15 236.22,5653.62L236.22,5905.51" style="fill:none;stroke:white;stroke-width:1.4px;"/>
        </g>
        <g transform="matrix(1.03443,-1.06471,1.06471,1.03443,1885.95,-2239.47)">
            <path d="M236.22,0L236.22,1279.46C236.22,1293.73 234.46,1309.26 236.237,1323.41C237.036,1329.77 240.543,1336.75 242.533,1342.86C247.133,1356.96 251.795,1371.05 256.5,1385.12C267.325,1417.51 278.399,1449.8 289.259,1482.17C294.97,1499.2 301.419,1516.23 306.101,1533.56C333.366,1634.51 345.17,1738.84 375.259,1839.18C381.87,1861.22 388.552,1883.72 397.372,1905C407.861,1930.3 421.604,1954.76 434.497,1978.89C469.759,2044.9 509.147,2108.69 551.543,2170.34C579.39,2210.84 611.279,2248.89 633.879,2292.65C687.361,2396.19 712.814,2512.25 713.974,2628.46C715.93,2824.49 651.638,3015.56 558.462,3186.05C525.386,3246.58 488.09,3304.46 450.458,3362.2C439.064,3379.69 427.538,3397.16 417.279,3415.34C412.446,3423.91 405.304,3434.5 404.345,3444.53C403.326,3455.18 404.172,3466.41 404.546,3477.09C405.386,3501.12 407.805,3525.06 411.464,3548.81C421.618,3614.74 439.924,3679.49 459.245,3743.23C465.981,3765.46 474.407,3787.38 480.54,3809.75C485.536,3827.97 488.869,3846.89 493.065,3865.32C514.994,3961.66 527.076,4058.43 517.687,4157.27C509.393,4244.59 486.267,4329.68 455.169,4411.49C437.431,4458.15 416.497,4503.52 396.274,4549.14C360.469,4629.91 324.696,4710.7 291.068,4792.41C278.307,4823.41 265.851,4854.54 253.804,4885.83C248.169,4900.47 241.403,4915.24 237.01,4930.29C234.244,4939.77 236.22,4952.07 236.22,4961.91L236.22,5905.51" style="fill:none;stroke:white;stroke-width:1.4px;"/>
        </g>
        <g transform="matrix(1.03443,-1.06471,1.06471,1.03443,-3245.49,3042.14)">
            <path d="M472.441,5905.51L472.441,4346.17C472.441,4345.1 472.65,4339.9 471.891,4338.71C470.824,4337.04 468.436,4336.77 466.713,4335.79C461.499,4332.83 456.318,4329.8 451.194,4326.69C435.27,4317 419.911,4306.38 405.622,4294.39C367,4262.01 337.535,4219.99 314.073,4175.69C246.177,4047.51 212.957,3905.02 156.084,3772.25C126.777,3703.83 86.919,3638.73 42.489,3579.08C-7.66,3511.76 -67.742,3452.14 -139.008,3407.34C-163.247,3392.11 -188.529,3378.62 -214.39,3366.35C-222.957,3362.29 -231.584,3358.36 -240.247,3354.51C-243.541,3353.04 -249.045,3351.79 -251.745,3349.44C-255.167,3346.47 -257.014,3338.64 -258.694,3334.53C-263.616,3322.48 -267.724,3310.11 -271.187,3297.57C-285.982,3243.98 -289.833,3187.65 -290.365,3132.29C-290.898,3076.79 -287.654,3021.3 -282.918,2966.02C-279.002,2920.33 -274.527,2874.73 -266.497,2829.56C-234.969,2652.18 -174.408,2480.35 -105.797,2314.25C-17.899,2101.47 86.49,1895.79 196.079,1693.47C256.299,1582.29 314.853,1470.11 378.274,1360.7C399.542,1324.01 421.284,1287.6 443.151,1251.27C449.91,1240.04 456.682,1228.81 463.437,1217.58C466.034,1213.26 470.703,1207.94 472.114,1203.13C473.132,1199.66 472.441,1195.07 472.441,1191.5L472.441,0" style="fill:none;stroke:white;stroke-width:1.4px;"/>
        </g>
        <g transform="matrix(1.03443,-1.06471,1.06471,1.03443,-2512.43,2287.63)">
            <path d="M472.441,5905.51L472.441,5097.85C472.441,5088.88 473.791,5078.72 472.441,5069.86C471.767,5065.44 468.201,5061.1 465.965,5057.35C460.016,5047.36 453.852,5037.49 447.457,5027.78C422.277,4989.53 393.437,4953.61 360.431,4921.81C277.253,4841.69 171.653,4796.75 59.286,4775.35C-23.611,4759.56 -108.083,4756.13 -191.303,4742.78C-250.711,4733.25 -314.249,4717.38 -357.685,4672.87C-367.304,4663.02 -375.682,4651.98 -382.702,4640.14C-384.971,4636.31 -388.742,4631.39 -389.379,4626.9C-390.96,4615.77 -387.649,4602.37 -385.526,4591.5C-380.584,4566.21 -372.921,4541.46 -365.009,4516.96C-340.743,4441.84 -313.138,4367.8 -287.873,4293C-233.659,4132.51 -187.576,3969.24 -129.776,3809.98C-119.267,3781.03 -108.666,3752.01 -96.957,3723.51C-83.923,3691.79 -69.692,3660.64 -57.407,3628.59C-33.891,3567.25 -14.114,3504.14 -2.441,3439.41C10.867,3365.62 12.317,3290.19 -3.979,3216.76C-15.432,3165.16 -37.559,3116.56 -48.507,3064.93C-51.421,3051.18 -51.953,3037.77 -53.089,3023.87C-54.447,3007.25 -58.306,2990.45 -60.879,2973.97C-74.468,2886.93 -86.869,2799.74 -94.973,2711.99C-125.577,2380.65 -97.485,2048.37 -61.1,1718.71C-52.361,1639.52 -42.835,1560.35 -36.568,1480.92C-33.968,1447.97 -34.293,1414.91 -31.08,1381.98C-30.129,1372.22 -29.639,1361.95 -27.576,1352.36C-26.454,1347.14 -22.025,1342.92 -18.825,1338.79C-10.883,1328.53 -2.739,1318.43 5.541,1308.44C35.42,1272.4 66.968,1237.78 98.667,1203.35C175.437,1119.95 253.418,1037.55 319.834,945.44C339.969,917.518 359.254,889.139 376.037,859.045C390.718,832.72 404.016,805.27 414.277,776.898C435.306,718.756 445.71,657.618 456.283,596.924C459.477,578.593 462.732,560.271 466.412,542.03C468.209,533.121 470.95,524.116 472.198,515.129C473.248,507.562 472.441,499.423 472.441,491.793L472.441,0" style="fill:none;stroke:white;stroke-width:1.4px;"/>
        </g>
        <g transform="matrix(1.03443,-1.06471,1.06471,1.03443,-1779.36,1533.11)">
            <path d="M472.441,5905.51L472.441,5833.54C472.441,5821.81 473.626,5809.39 472.408,5797.73C472.126,5795.03 470.14,5791.73 469.128,5789.21C466.346,5782.28 463.353,5775.43 460.266,5768.63C450.23,5746.51 439.319,5724.79 428.46,5703.07C393.056,5632.26 356.977,5561.78 321.345,5491.08C263.903,5377.11 207.49,5262.61 152.341,5147.5C122.493,5085.2 94.573,5021.84 63.543,4960.13C35.92,4905.19 4.213,4852.06 -34.076,4803.84C-44.709,4790.45 -55.839,4777.46 -67.46,4764.91C-72.815,4759.13 -79.132,4753.77 -84.05,4747.64C-89.861,4740.39 -93.409,4729.42 -97.094,4720.93C-109.564,4692.19 -116.18,4661.69 -103.598,4631.78C-95.371,4612.23 -81.557,4595.38 -66.947,4580.24C-46.352,4558.9 -23.178,4540.08 0.326,4522.06C78.322,4462.27 161.756,4409.46 243.905,4355.66C510.005,4181.39 776.717,4005.72 1020.64,3800.84C1101.81,3732.68 1180.67,3661.16 1251.58,3582.24C1281.47,3548.98 1318.36,3514.32 1321.21,3467.01C1322.66,3442.83 1316.65,3418.74 1308.44,3396.18C1295.61,3360.94 1277.2,3327.74 1257.74,3295.79C1205.66,3210.32 1142.32,3126.89 1067.1,3060.43C1031.75,3029.2 993.424,3000.72 955.402,2972.87C904.082,2935.28 853.267,2896.97 801.576,2859.89C662.482,2760.11 522.715,2661.17 387.151,2556.58C327.101,2510.25 267.693,2462.88 211.255,2412.17C171.802,2376.72 132.28,2339.58 100.764,2296.69C57.96,2238.43 28.096,2171.05 7.14,2102.14C-32.319,1972.38 -44.568,1834.23 -44.496,1699.13C-44.358,1439.44 5.047,1176.69 118.293,941.935C149.055,878.168 184.4,816.628 223.953,757.908C241.373,732.046 258.912,705.183 279.156,681.419C288.349,670.628 299.378,661.042 309.116,650.707C329.791,628.764 349.643,606.02 368.173,582.231C400.625,540.568 425.808,494.863 452.43,449.445C475.981,409.265 500.867,368.263 510.118,322.004C516.089,292.148 517.271,258.778 512.736,228.629C509.065,204.228 503.667,180.016 499.515,155.684C489.884,99.239 482.563,42.427 478.09,-14.665" style="fill:none;stroke:white;stroke-width:1.4px;"/>
        </g>
        <g transform="matrix(1.03443,-1.06471,1.06471,1.03443,-1046.3,778.595)">
            <path d="M673.383,6179.6C677.742,6222.05 667.463,6282.05 620.842,6297.51C614.868,6299.49 608.618,6300.57 602.336,6300.88C591.612,6301.41 580.866,6299.74 570.552,6296.88C547.657,6290.51 526.499,6278.53 506.986,6265.21C476.49,6244.39 448.991,6219.28 423.136,6193.01C412.883,6182.59 402.884,6171.92 393.092,6161.07C388.757,6156.27 382.361,6150.95 379.361,6145.19C373.391,6133.72 370.124,6119.68 365.797,6107.48C356.798,6082.12 348.024,6056.68 339.468,6031.16C311.194,5946.84 285.266,5861.72 261.798,5775.94C206.552,5573.99 164.59,5368.54 148.632,5159.55C142.654,5081.26 139.666,5002.22 145.684,4923.84C150.149,4865.69 159.691,4806.63 183.827,4753.1C207.154,4701.37 244.776,4656.67 282.183,4614.59C339.511,4550.09 401.409,4489.86 461.873,4428.36C538.463,4350.45 613.673,4271 683.058,4186.54C758.551,4094.65 825.642,3995.66 888.223,3894.61C1030.4,3665.04 1143.72,3413.47 1192.47,3146.62C1221.87,2985.7 1226.69,2818.62 1189.71,2658.45C1180.58,2618.9 1168.78,2579.92 1153.67,2542.23C1147.59,2527.05 1141.8,2508.09 1131.75,2495.05C1098.59,2452.01 1041.68,2438.47 993.277,2421C941.172,2402.21 892.119,2377.12 846.07,2346.32C811.424,2323.16 777.679,2298.39 747.778,2269.3C711.787,2234.28 678.567,2194.05 637.259,2165.01C624.463,2156.01 609.858,2149.7 596.223,2142.06C569.585,2127.15 542.972,2112.19 516.667,2096.7C448.54,2056.57 383.641,2011.31 324.233,1959.01C263.813,1905.83 218.153,1840.14 180.501,1769.31C133.987,1681.81 99.966,1587.35 79.369,1490.44C46.407,1335.35 49.533,1171.68 103.488,1021.6C130.013,947.822 168.361,879.005 214.321,815.619C258.028,755.343 308.299,700.478 357.802,645.009C396.853,601.25 436.806,556.483 466.194,505.418C479.526,482.253 489.976,457.216 498.386,431.883C507.858,403.349 516.909,372.341 518.69,342.204C522.368,279.991 505.785,215.899 490.649,156.108C473.966,90.203 454.084,25.169 435.026,-40.072C421.876,-85.087 408.311,-130.323 399.519,-176.441" style="fill:none;stroke:white;stroke-width:1.4px;"/>
        </g>
        <g transform="matrix(1.03443,-1.06471,1.06471,1.03443,-313.236,24.0792)">
            <path d="M754.921,5762.84C777.92,5698.01 802.327,5633.12 833.313,5571.61C843.823,5550.75 855.067,5529.82 869.286,5511.2C874.023,5505 879.174,5498.89 885.32,5494.03C887.368,5492.4 889.552,5490.92 891.918,5489.8C892.255,5489.64 895.888,5488.48 895.887,5488.48C891.026,5509.24 880.249,5530.74 870.529,5549.65C864.279,5561.8 857.229,5573.67 848.616,5584.32C843.291,5590.9 837.31,5597.07 830.386,5601.98C825.944,5605.13 821.092,5607.75 815.898,5609.42C779.652,5621.11 749.942,5581.49 733.101,5555.49C729.157,5549.4 725.421,5543.18 721.842,5536.86C717.435,5529.1 713.265,5521.2 709.268,5513.21C703.899,5502.49 698.841,5491.61 693.997,5480.64C688.323,5467.79 682.946,5454.81 677.77,5441.75C670.847,5424.28 664.287,5406.66 657.944,5388.97C650.014,5366.85 642.428,5344.61 634.986,5322.32C611.223,5251.15 588.137,5180.29 571.895,5106.95C551.071,5012.91 538.343,4916.88 513.683,4823.72C508.581,4804.45 502.844,4785.26 495.328,4766.77C488.3,4749.48 479.774,4732.78 472.687,4715.49C460.024,4684.59 449.042,4653 439.635,4620.96C404.27,4500.5 391.051,4374.29 391.834,4249.03C392.176,4194.32 395.274,4139.88 402.584,4085.64C413.417,4005.29 432.374,3926.02 452.668,3847.6C477.062,3753.33 504.103,3659.73 530.055,3565.89C570.527,3419.54 611.335,3273.29 651.088,3126.75C691.934,2976.18 731.682,2825.31 772.845,2674.82C838.429,2435.06 929.034,2185.87 887.071,1933.46C875.18,1861.93 851.274,1793.3 813.159,1731.49C804.594,1717.6 795.479,1704.06 785.914,1690.84C781.947,1685.36 778.117,1678.74 773.163,1674.1C766.494,1667.85 758.383,1662.63 751.074,1657.15C734.956,1645.08 718.611,1633.32 702.278,1621.54C660.536,1591.45 618.954,1561.14 578.769,1528.97C527.087,1487.6 478.996,1442.77 431.299,1396.94C392.112,1359.29 352.779,1321.8 316.387,1281.39C267.419,1227.02 220.575,1169.72 180.477,1108.44C171.736,1095.08 163.345,1081.49 155.423,1067.63C148.823,1056.08 142.88,1045.38 142.295,1031.76C141.064,1003.17 158.891,976.828 176.734,956.129C215.953,910.632 267.921,875.969 318.439,844.369C467.15,751.348 630.723,684.83 778.336,589.802C818.948,563.657 859.915,535.474 893.138,500.087C907.973,484.286 923.066,465.502 927.774,443.803C929.023,438.05 930.862,427.316 927.721,421.83C925.735,418.361 920.028,414.98 917.005,412.425C908.258,405.033 899.458,397.704 890.626,390.413C847.975,355.208 804.64,320.843 761.836,285.826C673.225,213.334 584.399,138.239 512.202,48.831C464.985,-9.643 424.452,-76.23 409.361,-150.721" style="fill:none;stroke:white;stroke-width:1.4px;"/>
        </g>
        <g transform="matrix(1.03443,-1.06471,1.06471,1.03443,419.827,-730.436)">
            <path d="M523.955,5909.04C583.986,5695.92 635.745,5480.52 697.495,5267.87C720.215,5189.63 743.428,5111.57 765.949,5033.27C772.843,5009.3 779.906,4985.39 787.123,4961.52C790.623,4949.94 796.457,4937.24 797.419,4925.18C806.55,4810.7 801.505,4693.54 784.023,4580.1C774.585,4518.85 758.766,4459.03 747.944,4398.07C735.786,4329.6 729.318,4260.02 727.847,4190.5C725.37,4073.43 734.437,3956.57 740.486,3839.75C742.593,3799.06 744.358,3758.34 744.765,3717.6C745.019,3692.12 745.883,3666.31 741.401,3641.14C738.174,3623.01 732.89,3605.16 724.642,3588.65C711.012,3561.37 689.317,3539.71 662.784,3524.88C642.168,3513.36 619.671,3506.94 597.597,3498.94C567.849,3488.15 538.215,3475.45 512.53,3456.7C468.685,3424.68 447.702,3377.03 444.284,3323.61C441.847,3285.52 445.632,3246.57 448.143,3208.55C452.689,3139.71 459.313,3071.02 466.371,3002.4C487.452,2797.45 515.196,2593.18 528.977,2387.53C537.552,2259.55 541.054,2131.11 535.227,2002.93C533.505,1965.08 530.972,1927.26 527.579,1889.52C525.353,1864.76 521.105,1839.76 520.629,1814.9C520.217,1793.39 522.685,1771.84 525.992,1750.61C534.15,1698.25 547.924,1646.77 562.743,1595.96C583.246,1525.66 606.825,1456.31 630.028,1386.87C642.894,1348.36 655.852,1309.83 666.981,1270.78C674.337,1244.96 682.269,1217.92 683.113,1190.9C683.584,1175.82 677.286,1161.96 672.91,1147.75C666.193,1125.93 660.021,1103.95 654.284,1081.85C641.345,1032.03 630.577,981.654 620.919,931.098C615.311,901.739 608.784,872.124 605.902,842.35C599.499,776.189 609.481,709.385 614.619,643.477C621.037,561.138 621.868,479.909 601.774,399.207C584.98,331.762 555.906,268.618 523.893,207.207C512.154,184.687 500.114,162.327 488.508,139.739C484.701,132.329 480.935,124.899 477.232,117.437C475.821,114.595 473.259,110.984 472.543,107.9C471.718,104.348 472.441,99.598 472.441,95.96L472.441,0" style="fill:none;stroke:white;stroke-width:1.4px;"/>
        </g>
        <g transform="matrix(1.03443,-1.06471,1.06471,1.03443,1152.89,-1484.95)">
            <path d="M472.441,5905.51L472.441,5409.72C472.441,5403.33 471.636,5396.32 472.844,5390.02C475.844,5374.36 481.818,5358.68 486.32,5343.38C495.578,5311.91 505.16,5280.54 515.113,5249.28C547.716,5146.9 584.246,5045.72 624.809,4946.22C693.453,4777.85 772.936,4614.27 846.29,4447.96C870.247,4393.64 893.48,4338.97 914.351,4283.38C921.197,4265.15 927.778,4246.82 933.992,4228.36C936.785,4220.07 940.443,4211.5 942.281,4202.94C943.935,4195.23 943.246,4186.52 943.475,4178.66C943.95,4162.31 944.211,4145.96 944.236,4129.61C944.313,4079.05 941.508,4028.93 933.586,3978.95C910.989,3836.38 859.117,3700.19 816.287,3562.94C803.687,3522.57 791.645,3482.01 780.87,3441.11C770.989,3403.6 762.276,3365.85 750.917,3328.73C736.895,3282.91 720.145,3237.94 700.517,3194.23C673.957,3135.07 641.77,3078.92 608.807,3023.17C580.493,2975.27 550.294,2926.74 530.654,2874.45C516.441,2836.61 506.935,2796.43 501.021,2756.5C497.192,2730.65 493.09,2703.2 494.11,2677.03C495.564,2639.72 505.87,2602.37 515.245,2566.46C529.061,2513.53 544.756,2461.09 560.152,2408.61C613.614,2226.36 664.992,2043.35 702.44,1857.03C713.463,1802.18 723.43,1747.07 730.94,1691.62C733.544,1672.39 735.871,1653.12 737.449,1633.78C738.099,1625.81 739.656,1616.82 738.836,1608.83C738.077,1601.42 732.887,1592.97 730.091,1586.09C723.063,1568.81 715.856,1551.6 708.484,1534.46C683.518,1476.41 656.293,1419.39 630.491,1361.72C571.069,1228.9 529.151,1090.9 496.663,949.194C490.909,924.097 485.396,898.945 480.067,873.755C477.458,861.423 473.143,848.24 472.441,835.648C470.67,803.887 472.441,771.506 472.441,739.688L472.441,0" style="fill:none;stroke:white;stroke-width:1.4px;"/>
        </g>
        <g transform="matrix(1.03443,-1.06471,1.06471,1.03443,1885.95,-2239.47)">
            <path d="M472.441,5905.51L472.441,4714.01C472.441,4710.24 471.901,4705.86 472.748,4702.15C474.064,4696.39 477.389,4690.46 479.583,4684.97C484.182,4673.46 488.815,4661.96 493.474,4650.47C508.012,4614.64 522.694,4578.85 536.723,4542.81C576.026,4441.84 609.819,4338.39 626.784,4231.1C639.526,4150.52 642.001,4069.3 636.256,3987.98C633.964,3955.55 630.386,3923.22 628.345,3890.77C626.795,3866.13 625.57,3840.27 632.026,3816.18C636.168,3800.72 644.208,3786.73 656.675,3776.52C661.475,3772.59 667.009,3770.12 672.004,3766.59C675.531,3764.09 675.304,3758.23 678.479,3755.32C682.866,3751.3 688.869,3748.26 693.782,3744.92C704.817,3737.4 715.748,3729.74 726.503,3721.83C772.69,3687.85 815.858,3649.76 855.134,3607.98C990.143,3464.37 1076.11,3276.59 1076.29,3077.71C1076.43,2923.05 1025.71,2772.93 945.666,2641.72C925.372,2608.45 900.722,2578.67 877.741,2547.28C848.406,2507.22 820.52,2466.1 794.111,2424.05C691.924,2261.35 612.058,2084.96 559.714,1900.04C540.673,1832.77 530.951,1763.29 512.836,1695.7C505.034,1666.59 496.288,1637.75 486.879,1609.12C483.801,1599.75 480.657,1590.41 477.468,1581.08C475.936,1576.6 473.381,1571.65 472.614,1566.99C471.583,1560.73 472.441,1553.68 472.441,1547.35L472.441,0" style="fill:none;stroke:white;stroke-width:1.4px;"/>
        </g>
        <g transform="matrix(1.03443,-1.06471,1.06471,1.03443,-3245.49,3042.14)">
            <path d="M708.661,0L708.661,947.601C708.661,955.678 710.706,966.982 707.888,974.602C704.831,982.866 699.543,990.89 695.473,998.711C686.733,1015.5 677.825,1032.21 668.703,1048.8C636.966,1106.51 602.348,1162.51 566.425,1217.69C547.865,1246.2 528.44,1274.23 510.448,1303.1C462.415,1380.17 417.858,1459.34 376.159,1540.01C348.398,1593.72 322.428,1648.23 296.349,1702.76C278.414,1740.26 259.162,1777.11 241.492,1814.75C206.815,1888.62 174.699,1963.72 145.898,2040.08C126.002,2092.83 107.689,2146.18 91.335,2200.14C84,2224.34 75.621,2248.91 70.409,2273.67C65.448,2297.24 63.773,2321.97 60.592,2345.85C53.922,2395.9 47.355,2445.98 41.196,2496.1C23.041,2643.84 7.261,2792.66 7.398,2941.69C7.471,3021.22 12.472,3101.02 27.29,3179.27C38.454,3238.22 56.343,3295.13 74.607,3352.18C80.123,3369.41 84.558,3387.07 90.299,3404.2C93.293,3413.14 101.245,3421.8 106.098,3429.93C116.019,3446.55 124.953,3463.74 133.174,3481.26C143.438,3503.13 153.285,3525.53 160.689,3548.55C170.685,3579.62 177.351,3611.75 183.377,3643.78C198.66,3725.04 209.145,3807.16 221.519,3888.89C232.602,3962.09 245.755,4034.94 258.282,4107.9C266.267,4154.4 277.341,4199.79 288.418,4245.59C301.413,4299.33 315.529,4353.12 344.987,4400.59C364.878,4432.64 391.7,4459.97 425.595,4477.05C446.143,4487.4 470.047,4491.26 492.179,4497.2C529.483,4507.23 566.662,4517.92 602.914,4531.32C630.355,4541.46 657.256,4553.16 682.97,4567.15C689.064,4570.46 695.09,4573.9 701.036,4577.47C702.471,4578.34 707.919,4580.64 708.608,4582.12C708.679,4582.27 708.661,4589.94 708.661,4590.07L708.661,4957.91C708.661,5273.78 708.661,5589.65 708.661,5905.51" style="fill:none;stroke:white;stroke-width:1.4px;"/>
        </g>
        <g transform="matrix(1.03443,-1.06471,1.06471,1.03443,-2512.43,2287.63)">
            <path d="M708.661,0L708.661,187.921C708.661,219.726 710.495,252.136 708.661,283.88C707.986,295.585 704.643,307.558 703.053,319.206C699.861,342.591 697.917,366.142 697.35,389.738C696.036,444.324 699.897,498.911 695.6,553.44C691.196,609.332 677.873,663.819 654.412,714.82C597.298,838.977 492.695,934.677 395.16,1027.11C371.793,1049.25 348.126,1071.08 324.328,1092.75C316.28,1100.09 308.216,1107.4 300.144,1114.7C296.341,1118.15 291.072,1121.63 288.003,1125.72C277.617,1139.59 270.336,1157.71 262.631,1173.19C245.49,1207.64 230.504,1243.14 217.55,1279.37C165.195,1425.78 145.649,1582.45 141.118,1737.23C139.313,1798.89 141.781,1860.22 142.865,1921.84C145.856,2091.93 157.693,2261.92 186.665,2429.7C198.778,2499.84 213.813,2569.49 232.246,2638.25C240.648,2669.6 248.024,2702.84 260.306,2732.92C271.156,2759.49 293.264,2779.88 315.423,2797.19C350.543,2824.62 389.251,2847.12 425.424,2873.1C487.702,2917.82 542.961,2973.62 563.636,3049.58C569.056,3069.49 572.076,3090.01 573.041,3110.62C574.481,3141.34 571.445,3172.15 565.588,3202.3C555.427,3254.59 534.455,3302.67 518.203,3353.08C493.302,3430.33 473.374,3509.07 457.235,3588.59C444.866,3649.54 434.73,3710.89 424.756,3772.26C402.937,3906.53 378.542,4043.21 308.824,4162.17C286.662,4199.99 260.48,4235.41 230.782,4267.65C213.091,4286.86 193.389,4303.96 175.541,4322.98C112.742,4389.9 50.075,4457.69 -5.103,4531.15C-32.557,4567.7 -58.857,4606.16 -77.136,4648.25C-88.17,4673.65 -96.417,4701.21 -95.523,4729.17C-95.332,4735.14 -94.712,4741.1 -93.622,4746.98C-93.597,4747.12 -92.693,4751.78 -92.594,4751.91C-91.258,4753.58 -85.706,4754.54 -83.694,4755.22C-74.381,4758.41 -64.908,4761.11 -55.36,4763.49C-18.723,4772.62 18.896,4777.39 56.264,4782.41C126.736,4791.88 197.304,4802.13 265.019,4824.62C352.063,4853.54 430.088,4902.48 494.293,4967.97C562.33,5037.37 613.92,5121.01 658.175,5207.02C669.808,5229.63 680.962,5252.48 691.835,5275.47C697.121,5286.64 704.184,5298.24 707.949,5310.01C709.857,5315.97 708.661,5323.56 708.661,5329.75C708.661,5341.75 708.661,5766.9 708.661,5905.51" style="fill:none;stroke:white;stroke-width:1.4px;"/>
        </g>
        <g transform="matrix(1.03443,-1.06471,1.06471,1.03443,-1779.36,1533.11)">
            <path d="M742.423,-17.15C754.385,56.405 769.555,129.652 778.306,203.691C783.749,249.736 787.864,300.243 769.584,344.125C759.396,368.581 738.785,385.532 717.79,400.868C679.575,428.785 636.809,450.258 595.252,472.636C583.89,478.754 572.538,484.892 561.225,491.102C555.784,494.089 548.811,496.756 544.359,501.164C536.238,509.204 529.156,518.823 521.865,527.617C506.938,545.62 492.463,563.998 478.456,582.726C429.876,647.675 386.981,716.82 349.923,788.957C328.751,830.17 309.475,872.352 292.038,915.277C283.911,935.282 274.784,955.622 268.884,976.419C263.505,995.381 260.12,1015.21 256.311,1034.54C248.337,1075.01 241.905,1115.79 236.907,1156.73C219.181,1301.97 219.261,1449.24 233.037,1594.81C247.097,1743.38 273.073,1894.44 325.293,2034.77C347.372,2094.09 375.386,2151.92 415.382,2201.37C460.477,2257.13 521.705,2300.29 579.042,2342.38C665.071,2405.52 753.64,2465.16 842.175,2524.71C870.917,2544.04 899.688,2563.32 928.452,2582.62C943.604,2592.79 959.35,2602.41 973.588,2613.84C1007.36,2640.96 1036.96,2673.49 1066.25,2705.26C1109.75,2752.42 1151.9,2800.82 1195.89,2847.53C1227.8,2881.39 1260.45,2915.72 1297.69,2943.83C1328.75,2967.28 1365.85,2983.4 1400.84,3000.09C1472.18,3034.11 1546.67,3065.17 1608.1,3116.05C1646.78,3148.08 1683.14,3189.84 1696.03,3239.51C1702.77,3265.44 1701.17,3295.74 1699.63,3322.27C1697.83,3353.19 1693.92,3385.28 1684.73,3414.95C1669.01,3465.65 1640.62,3512.05 1609.69,3554.79C1561.25,3621.76 1503.86,3682.14 1444.16,3739.11C1337.87,3840.55 1222.15,3931.94 1103.64,4018.61C940.143,4138.17 769.992,4248.14 598.07,4355.11C511.576,4408.93 423.492,4460.94 340.119,4519.57C290.611,4554.39 235.954,4594.12 210.622,4651.17C186.264,4706.02 190.44,4770.84 187.625,4829.41C186.662,4849.47 185.245,4869.46 185.271,4889.55C185.283,4898.52 184.33,4908.59 186.407,4917.36C191.332,4938.18 200.006,4958.8 207.314,4978.86C222.451,5020.42 238.981,5061.47 256.15,5102.23C346.196,5315.99 452.666,5522.88 563.294,5726.62C598.152,5790.82 634.744,5853.99 672.623,5916.45C683.546,5934.46 694.8,5952.36 704.693,5970.96C711.047,5982.91 717.701,5996.1 717.615,6009.97" style="fill:none;stroke:white;stroke-width:1.4px;"/>
        </g>
        <g transform="matrix(1.03443,-1.06471,1.06471,1.03443,-1046.3,778.595)">
            <path d="M603.819,-208.568C596.827,-173.855 590.305,-139.043 584.64,-104.087C581.738,-86.181 578.151,-68.015 576.714,-49.925C574.059,-16.513 577.339,18.796 581.396,51.954C583.751,71.21 589.613,90.39 593.92,109.289C601.088,140.745 607.886,172.294 613.232,204.117C629.005,298 631.077,394.036 609.669,487.226C600.308,527.977 586.672,567.574 570.059,605.916C564.091,619.69 558.393,634.136 551.133,647.288C545.241,657.96 536.482,667.622 529.124,677.315C516.289,694.228 503.289,711.015 490.364,727.859C451.221,778.872 412.762,830.636 380.918,886.615C348.777,943.115 323.809,1003.69 310.048,1067.33C279.055,1210.67 306.629,1361.27 371.519,1491.44C391.275,1531.07 414.33,1569.59 441.896,1604.31C496.937,1673.63 566.779,1730.66 637.298,1783.48C701.101,1831.26 766.98,1877.67 835.087,1919.16C873.235,1942.4 912.902,1963.12 952.001,1984.69C1013.15,2018.43 1075.35,2050.24 1136.59,2083.84C1158.97,2096.13 1181.32,2108.62 1202.41,2123.05C1210.25,2128.41 1220.62,2134.12 1226.87,2141.33C1230.59,2145.62 1232.75,2153.51 1234.99,2158.7C1241.14,2172.9 1246.39,2187.49 1251.03,2202.25C1269.12,2259.75 1278.78,2319.86 1284.88,2379.72C1299.72,2525.36 1292.02,2672.38 1274.84,2817.44C1256.54,2972.03 1225.41,3124.51 1181.54,3273.89C1119.28,3485.85 1033.05,3690.35 935.706,3888.41C893.013,3975.27 848.02,4060.96 802.966,4146.61C763.72,4221.22 724.115,4295.78 688.898,4372.41C668.876,4415.97 652.712,4461.49 634.933,4506.02C592.301,4612.81 554.234,4722.09 538.41,4836.53C531.47,4886.72 530.19,4937.48 531.593,4988.07C532.985,5038.25 537.228,5088.19 541.9,5138.15C551.027,5235.74 563.679,5332.69 581.425,5429.12C613.96,5605.92 659.366,5781.35 722.347,5949.84C752.827,6031.39 787.372,6112.3 831.983,6187.23C857.456,6230.01 886.88,6274.23 926.76,6305C931.802,6308.89 937.049,6312.53 942.53,6315.78C942.948,6316.03 947.021,6318.51 947.747,6318.37C947.896,6318.34 952.539,6314.18 952.629,6314.1C956.713,6310.4 960.63,6306.52 964.384,6302.49C979.862,6285.86 992.535,6266.75 1003.12,6246.7C1041.82,6173.39 1056.21,6087.82 1062.14,6006C1063.51,5987.2 1064.34,5968.36 1064.7,5949.52C1064.79,5944.36 1065.1,5939.1 1064.88,5933.95C1064.83,5932.59 1065.39,5930.88 1064.46,5929.88C1063.86,5929.24 1062.86,5930.59 1062.06,5930.95C1059.64,5932.05 1057.26,5933.22 1054.89,5934.44C1044.97,5939.56 1035.55,5945.63 1026.61,5952.31" style="fill:none;stroke:white;stroke-width:1.4px;"/>
        </g>
        <g transform="matrix(1.03443,-1.06471,1.06471,1.03443,-313.236,24.0792)">
            <path d="M722.463,-84.962C747.576,-19.112 787.67,40 831.564,94.679C891.97,169.927 960.639,237.931 1026.14,308.633C1058.01,343.03 1089.44,378.071 1117.36,415.8C1145.91,454.394 1169.68,494.943 1176.45,543.156C1181.42,578.481 1177.8,614.396 1169.25,648.88C1166.47,660.078 1164.18,673.634 1158.6,683.807C1148.06,703.014 1129.89,719.351 1114.2,734.22C1082.45,764.299 1048.46,791.993 1015.02,820.141C928.056,893.339 838.902,966.945 774.384,1061.74C742.176,1109.07 714.292,1162.26 706.921,1219.76C702.828,1251.68 705.761,1284.7 718.729,1314.38C727.308,1334.02 740.845,1350.32 753.477,1367.41C773.443,1394.42 794.188,1420.96 813.39,1448.52C820.432,1458.63 825.27,1470.79 830.92,1481.74C842.398,1503.98 853.995,1526.16 865.319,1548.48C902.465,1621.68 935.73,1696.76 958.869,1775.66C991.789,1887.92 1004.55,2004.9 1002.51,2121.66C998.387,2359.04 947.995,2594.43 886.624,2822.87C861.874,2914.99 833.513,3006.02 807.5,3097.77C778.128,3201.38 751.271,3305.72 727.49,3410.75C706.903,3501.67 688.48,3593.19 674.99,3685.45C665.04,3753.5 657.141,3822.43 656.719,3891.29C656.34,3952.97 661.483,4014.79 666.075,4076.26C670.86,4140.3 674.911,4204.86 685.387,4268.28C697.843,4343.68 718.112,4418.42 741.776,4491.01C766.768,4567.68 797.123,4642.47 830.978,4715.62C842.654,4740.85 854.723,4765.9 867.036,4790.82C873.258,4803.42 880.545,4815.86 885.996,4828.79C894.241,4848.36 897.659,4871.46 902.431,4892.1C911.883,4932.98 920.034,4974.15 928.253,5015.28C939.07,5069.43 949.735,5123.67 963.472,5177.16C972.704,5213.11 982.861,5249.68 998.848,5283.31C1001.07,5287.99 1003.46,5292.59 1005.91,5297.15C1008.17,5301.34 1010.52,5305.49 1013,5309.56C1022.45,5325.06 1041.55,5353.58 1063.23,5340.65C1069.16,5337.11 1072.92,5331.81 1077.21,5326.59C1077.67,5326.03 1076.46,5327.83 1076.1,5328.46C1075.43,5329.61 1074.79,5330.78 1074.16,5331.95C1072.17,5335.69 1070.3,5339.49 1068.49,5343.32C1063.05,5354.84 1058.09,5366.58 1053.29,5378.37C1039.21,5413.01 1026.64,5448.26 1014.57,5483.63C977.929,5591 946.113,5700.01 915.278,5809.15" style="fill:none;stroke:white;stroke-width:1.4px;"/>
        </g>
        <g transform="matrix(1.03443,-1.06471,1.06471,1.03443,419.827,-730.436)">
            <path d="M708.661,0L708.661,315.867C708.661,327.174 706.668,340.586 708.963,351.666C711.945,366.057 718.812,380.452 722.989,394.619C731.493,423.465 738.241,452.801 743.587,482.391C755.499,548.328 759.365,615.243 768.802,681.508C780.842,766.058 798.415,850.492 816.667,933.901C835.745,1021.09 858.171,1107.94 890.587,1191.22C901.069,1218.15 912.615,1244.66 925.273,1270.64C931.932,1284.31 942.107,1297.78 941.405,1313.32C939.982,1344.82 930.062,1376.47 921.453,1406.57C908.437,1452.07 893.713,1497.09 878.984,1542.06C835.582,1674.58 789.952,1806.71 755.177,1941.84C743.49,1987.25 732.594,2033.27 727.069,2079.9C721.43,2127.49 723.742,2176.41 722.364,2224.29C720.047,2304.75 716.179,2385.16 711.767,2465.53C706.072,2569.27 699.342,2672.95 694.755,2776.74C691.943,2840.4 686.473,2905.7 694.198,2969.17C699.351,3011.51 711.172,3055.39 734.999,3091.29C761.485,3131.2 800.509,3160.5 837.712,3189.73C877.64,3221.1 917.168,3253.34 949.859,3292.45C981.605,3330.44 1002.75,3374.43 1023.99,3418.8C1047.87,3468.69 1072.35,3520.59 1086.53,3574.28C1102.51,3634.78 1103.4,3700.52 1103.78,3762.69C1104.35,3857.08 1098.89,3951.42 1095.18,4045.7C1091.46,4140.19 1089.55,4234.68 1090.75,4329.25C1091.8,4412.01 1093.53,4494.98 1089.82,4577.7C1088.7,4602.57 1087.04,4627.41 1084.53,4652.18C1083.35,4663.79 1083.58,4677.36 1079.9,4688.47C1068.34,4723.3 1052.4,4757.22 1038.99,4791.39C1012.24,4859.59 986.288,4928.11 961.799,4997.16C928.909,5089.9 900.358,5183.77 871.322,5277.74C842.965,5369.52 816.309,5461.57 791.19,5554.31C774.33,5616.55 757.613,5678.82 740.285,5740.94C733.455,5765.42 726.524,5789.88 719.399,5814.27C716.028,5825.82 710.973,5837.82 708.901,5849.65C707.792,5855.98 708.661,5863.12 708.661,5869.53C708.661,5881.52 708.661,5893.52 708.661,5905.51" style="fill:none;stroke:white;stroke-width:1.4px;"/>
        </g>
        <g transform="matrix(1.03443,-1.06471,1.06471,1.03443,1152.89,-1484.95)">
            <path d="M708.661,0L708.661,1047.56C708.661,1058.66 706.787,1071.72 709.263,1082.55C715.224,1108.62 723.011,1134.44 730.343,1160.16C765.643,1283.95 813.152,1402.99 855.468,1524.38C858.517,1533.13 862.302,1541.99 864.515,1550.99C869.625,1571.76 872.767,1593.05 877.873,1613.86C886.97,1650.95 898.504,1687.41 912.684,1722.87C929.286,1764.38 949.392,1804.45 972.171,1842.91C979.6,1855.45 987.311,1867.83 995.273,1880.04C1000.69,1888.34 1007.13,1896.4 1011.41,1905.36C1038.61,1962.36 1047.85,2028.75 1051.11,2091.17C1055.75,2180.34 1046.32,2270.03 1030.18,2357.67C1006.06,2488.68 965.941,2616.29 918.735,2740.68C892.408,2810.06 863.197,2878.25 835.873,2947.23C827.006,2969.61 818.293,2992.12 811.175,3015.13C807.168,3028.08 803.075,3041.64 801.815,3055.2C801.12,3062.69 802.482,3070.51 803.281,3077.95C817.525,3210.71 882.076,3328.41 931.562,3450.24C954.991,3507.91 975.773,3566.58 994.591,3625.92C1012.01,3680.84 1027.5,3736.3 1046.41,3790.74C1061.05,3832.89 1076.73,3874.67 1092.19,3916.52C1099.52,3936.37 1108.5,3956.4 1114.11,3976.8C1116.23,3984.49 1116.2,3993.36 1116.88,4001.28C1118.39,4018.79 1119.17,4036.37 1119.19,4053.95C1119.25,4119.83 1108.13,4185.22 1088.33,4247.98C1078.83,4278.09 1066.48,4307.21 1054.32,4336.33C1036.68,4378.52 1018.22,4420.37 999.452,4462.07C925.541,4626.35 847.939,4788.99 782.114,4956.78C763.83,5003.38 746.446,5050.34 730.118,5097.66C725.071,5112.29 720.124,5126.96 715.278,5141.65C713.161,5148.07 709.705,5155.17 708.691,5161.84C707.342,5170.71 708.661,5180.83 708.661,5189.81C708.661,5207.14 708.661,5737.58 708.661,5905.51" style="fill:none;stroke:white;stroke-width:1.4px;"/>
        </g>
        <g transform="matrix(1.03443,-1.06471,1.06471,1.03443,1885.95,-2239.47)">
            <path d="M708.661,0L708.661,1791.25C708.661,1797.45 707.684,1804.58 709.049,1810.66C710.797,1818.44 714.817,1826.31 717.494,1833.84C722.724,1848.56 727.737,1863.36 732.592,1878.21C747.878,1924.97 761.64,1972.21 775.475,2019.42C842.813,2249.17 919.923,2476.31 1041.44,2683.89C1070.5,2733.53 1101.91,2781.85 1136.3,2827.97C1146.48,2841.64 1156.91,2855.14 1167.68,2868.35C1175.62,2878.08 1184.48,2887.56 1191.55,2897.93C1271.7,3015.54 1335.5,3153.89 1333.33,3298.96C1332.84,3331.48 1328.94,3363.93 1321.58,3395.62C1285.3,3551.87 1168.09,3672.49 1038.33,3759.04C995.084,3787.88 949.758,3813.49 903.308,3836.79C887.341,3844.8 871.23,3852.51 855.083,3860.15C847.768,3863.61 837.901,3866.51 831.652,3871.7C819.264,3881.99 812.094,3897.43 807.588,3912.55C794.946,3954.97 795.389,4001.58 792.507,4045.39C788.57,4105.23 782.774,4164.89 772.727,4224.04C763.08,4280.84 749.924,4337 733.979,4392.35C728.732,4410.56 723.192,4428.69 717.406,4446.74C714.621,4455.43 709.795,4465.07 708.661,4474.11C706.727,4489.55 708.661,4506.52 708.661,4522.1L708.661,4941.92C708.661,5263.12 708.661,5584.31 708.661,5905.51" style="fill:none;stroke:white;stroke-width:1.4px;"/>
        </g>
        <g transform="matrix(1.06471,1.03443,-1.03443,1.06471,2863.37,-3245.49)">
            <path d="M236.22,0L236.22,1699.28C236.22,1720.43 237.686,1742.17 236.22,1763.26C235.923,1767.55 233.826,1771.83 232.417,1775.85C229.434,1784.36 226.393,1792.85 223.333,1801.33C214.303,1826.36 205.282,1851.39 196.761,1876.61C172.236,1949.18 152.309,2023.18 134.554,2097.67C81.075,2322.04 41.885,2550.27 8.511,2778.41C-3.616,2861.31 -14.764,2944.39 -23.534,3027.71C-26.507,3055.97 -29.195,3084.26 -31.322,3112.59C-32.382,3126.72 -34.303,3141.32 -34.004,3155.49C-33.719,3169.07 -31.185,3185.43 -25.34,3197.74C-16.06,3217.28 2.664,3229.93 21.609,3239.01C56.152,3255.57 94.146,3263.2 129.833,3276.77C162.221,3289.08 196.991,3308.46 201.007,3346.56C201.905,3355.08 201.055,3363.68 200.924,3372.21C200.635,3391.06 199.728,3409.89 198.47,3428.7C194.69,3485.17 187.992,3541.42 181.733,3597.66C166.667,3733.02 154.442,3868.78 158.845,4005.13C162.038,4104.04 173.011,4203.1 195.395,4299.57C202.788,4331.43 211.417,4363 221.291,4394.19C224.426,4404.09 227.685,4413.94 231.067,4423.76C232.65,4428.36 235.261,4433.39 236.127,4438.16C237.032,4443.15 236.22,4449.06 236.22,4454.12L236.22,5905.51" style="fill:none;stroke:white;stroke-width:1.4px;"/>
        </g>
        <g transform="matrix(1.06471,1.03443,-1.03443,1.06471,3617.89,-2512.43)">
            <path d="M236.22,0L236.22,1035.56C236.22,1048.64 237.599,1062.55 236.22,1075.55C235.174,1085.41 230.388,1095.89 227.646,1105.43C221.929,1125.32 216.503,1145.3 211.368,1165.35C195.965,1225.49 183.255,1286.28 172.61,1347.43C157.539,1434.02 146.84,1521.24 135.006,1608.29C127.301,1664.98 120.568,1722.64 106.252,1778.12C97.13,1813.48 84.118,1852.9 55.899,1877.92C42.771,1889.56 26.887,1896.93 10.761,1903.43C4.945,1905.78 -0.907,1908.03 -6.723,1910.38C-8.216,1910.98 -11.653,1911.68 -12.735,1912.84C-14.214,1914.43 -14.022,1918.45 -14.145,1920.37C-14.503,1925.91 -14.364,1931.49 -14.128,1937.04C-11.736,1993.22 -2.017,2049.47 6.019,2105.03C18.897,2194.07 32.71,2282.98 46.582,2371.87C84.137,2612.51 121.773,2853.11 173.06,3091.28C178.83,3118.07 183.026,3146.34 191.528,3172.44C198.74,3194.57 208.325,3216.15 217.826,3237.38C257.749,3326.58 313.597,3417.66 301.583,3519.42C288.573,3629.62 204.646,3717.94 118.479,3780.02C99.169,3793.93 79.091,3806.78 58.379,3818.5C33.796,3832.42 8.312,3844.76 -17.903,3855.28C-59.715,3872.07 -103.523,3884.35 -148.263,3890.06C-164.382,3892.12 -180.614,3893.32 -196.864,3893.51C-202.079,3893.58 -211.877,3891.45 -216.542,3894.12C-216.625,3894.17 -218.691,3897.8 -218.731,3897.87C-220.864,3901.67 -222.804,3905.58 -224.545,3909.58C-232.49,3927.8 -236.16,3947.63 -236.574,3967.45C-237.758,4024 -213.477,4074.66 -192.738,4125.82C-167.877,4187.15 -144.852,4249.22 -121.906,4311.29C-50.332,4504.89 19.771,4699.16 101.965,4888.59C129.368,4951.75 158.057,5014.36 188.736,5076C198.979,5096.58 209.419,5117.06 220.083,5137.42C224.997,5146.8 231.825,5156.48 235.456,5166.4C237.917,5173.13 236.22,5182.72 236.22,5189.81L236.22,5905.51" style="fill:none;stroke:white;stroke-width:1.4px;"/>
        </g>
        <g transform="matrix(1.06471,1.03443,-1.03443,1.06471,4372.4,-1779.36)">
            <path d="M236.22,0L236.22,375.842C236.22,379.432 237.02,384.348 236.22,387.837C235.532,390.839 232.716,394.518 231.273,397.249C227.922,403.587 224.558,409.918 221.179,416.242C210.233,436.732 199.14,457.144 187.913,477.481C148.886,548.176 107.365,617.447 68.685,688.335C13.566,789.351 -36.838,893.482 -71.716,1003.38C-101.515,1097.28 -119.098,1194.63 -122.884,1293.1C-124.112,1325.02 -123.97,1356.99 -122.678,1388.91C-122.102,1403.12 -122.215,1417.88 -120.265,1431.98C-117.235,1453.88 -105.518,1475.4 -95.009,1494.47C-75.169,1530.45 -51.464,1564.3 -27.55,1597.66C20.74,1665.02 71.779,1730.39 119.202,1798.38C150.208,1842.83 182.065,1888.86 202.921,1939.17C208.605,1952.88 213.779,1967.5 214.742,1982.43C215.28,1990.78 213.69,1999.21 212.81,2007.5C211.386,2020.93 209.935,2034.36 208.543,2047.79C204.21,2089.6 200.091,2131.73 202.132,2173.81C203.456,2201.09 207.607,2228.17 214.925,2254.49C218.841,2268.58 225.074,2282.14 228.59,2296.26C243.644,2356.71 257.673,2417.41 272.681,2477.87C295.205,2568.61 317.051,2659.8 342.8,2749.68C383.143,2890.5 428.682,3029.88 471.527,3169.95C496.3,3250.93 520.017,3332.34 538.793,3414.95C551.177,3469.44 562.825,3524.92 567.332,3580.7C571.496,3632.23 569.4,3684.16 562.215,3735.33C545.317,3855.66 500.922,3971.03 442.16,4076.9C344.295,4253.22 206.501,4403.83 55.557,4536.13C4.931,4580.5 -47.04,4623.29 -98.952,4666.14C-143.441,4702.86 -188.304,4739.5 -229.392,4780.07C-252.174,4802.56 -274.166,4826.12 -292.006,4852.8C-296.359,4859.32 -300.455,4866 -304.227,4872.86C-305.393,4874.99 -308.588,4879.17 -308.725,4881.61C-308.958,4885.75 -304.718,4892.9 -303.293,4896.85C-298.37,4910.48 -293.306,4924.07 -288.122,4937.61C-268.993,4987.56 -248.269,5036.9 -226.291,5085.66C-198.133,5148.14 -167.872,5209.67 -135.516,5270.08C-117.398,5303.91 -99.186,5337.96 -78.722,5370.44C-40.292,5431.44 4.392,5488.32 48.021,5545.61C102.418,5617.05 157.347,5689.27 197.182,5770.15C217.539,5811.48 236.22,5858.74 236.22,5905.51" style="fill:none;stroke:white;stroke-width:1.4px;"/>
        </g>
        <g transform="matrix(1.06471,1.03443,-1.03443,1.06471,5126.92,-1046.3)">
            <path d="M166.909,-85.703C89.953,123.581 -17.55,320.169 -141.637,505.048C-172.701,551.331 -205.77,595.979 -238.32,641.2C-245.778,651.561 -253.161,661.976 -260.415,672.481C-261.204,673.625 -267.144,680.65 -266.389,681.94C-265.181,684.003 -262.014,683.887 -259.927,685.053C-254.755,687.941 -249.929,691.436 -245.292,695.108C-228.591,708.332 -213.772,723.976 -199.346,739.587C-145.656,797.69 -96.343,859.943 -46.158,921.047C22.474,1004.61 91.653,1087.72 160.221,1171.34C187.525,1204.63 214.756,1238.03 240.825,1272.31C259.01,1296.22 277.091,1320.57 291.942,1346.74C303.75,1367.55 309.834,1389.94 317.236,1412.51C326.996,1442.27 337.125,1471.91 347.285,1501.54C381.951,1602.63 419.697,1704.67 436.881,1810.56C445.112,1861.28 448.703,1915.11 436.163,1965.49C426.916,2002.63 408.119,2037.04 384.995,2067.3C348.115,2115.56 301.066,2154.83 258.746,2198.06C246.302,2210.77 234.18,2223.81 222.65,2237.36C217.713,2243.16 211.99,2249.02 207.876,2255.44C201.13,2265.97 198.067,2281.33 194.95,2293.33C184.117,2335.05 184.407,2378.52 196.717,2419.88C221.272,2502.38 283.511,2570.08 340.932,2631.57C354.139,2645.72 364.839,2661.76 378.366,2675.64C400.724,2698.6 426.654,2717.73 452.958,2735.87C548.163,2801.52 662.842,2868.59 692.978,2989.15C697.155,3005.86 699.962,3023.42 700.145,3040.68C700.348,3059.75 693.391,3077.56 684.925,3094.36C670.162,3123.67 650.575,3150.53 630.805,3176.61C586.666,3234.82 538.05,3289.5 494.773,3348.39C469.437,3382.86 443.389,3419.66 429.593,3460.58C423.381,3479 421.891,3498.6 419.06,3517.73C415.673,3540.61 412.063,3563.46 408.265,3586.27C395.782,3661.26 381.308,3735.91 365.648,3810.3C326.259,3997.39 279.291,4182.76 231.501,4367.85C221.81,4405.38 211.228,4442.82 202.536,4480.59C191.463,4528.72 180.396,4576.6 166.157,4623.92C141.972,4704.3 111.717,4782.96 74.462,4858.21C62.904,4881.55 49.792,4904 37.834,4927.11C23.626,4954.57 10.643,4982.83 -2.324,5010.89C-43.904,5100.88 -78.799,5195.3 -81.203,5295.51C-84.76,5443.79 -15.357,5580.69 62.192,5702.81C91.11,5748.35 120.833,5794.84 154.25,5837.23C160.277,5844.88 167.617,5851.64 174.304,5858.7C187.435,5872.58 200.422,5886.59 213.251,5900.75C250.153,5941.47 285.796,5983.37 319.49,6026.8C376.712,6100.55 432.851,6180.44 464.685,6268.96C480.142,6311.94 490.64,6361.23 475.543,6405.84" style="fill:none;stroke:white;stroke-width:1.4px;"/>
        </g>
        <g transform="matrix(1.06471,1.03443,-1.03443,1.06471,5881.43,-313.236)">
            <path d="M70.603,-307.798C57.735,-282.566 44.36,-257.6 31.294,-232.471C27.079,-224.364 23.041,-216.205 18.227,-208.43C16.631,-205.851 14.984,-203.304 13.283,-200.792C12.727,-199.971 12.166,-199.154 11.598,-198.34C11.316,-197.937 10.282,-196.974 10.749,-197.132C18.461,-199.746 24.822,-205.327 31.87,-209.406C47.236,-218.298 62.955,-226.591 79.042,-234.103C138.114,-261.686 203.68,-278.978 269.203,-271.326C370.482,-259.498 449.413,-188.73 504.673,-107.31C563.298,-20.932 601.643,79.249 627.228,180.003C646.118,254.39 659.067,331.831 657.864,408.792C657.347,441.923 654.577,476.619 642.965,507.945C638.271,520.608 630.895,532.545 624.548,544.445C613.479,565.195 602.113,585.787 590.362,606.159C541.208,691.374 483.784,770.19 422.284,846.809C364.421,918.899 298.972,995.386 294.484,1092.26C292.79,1128.84 299.757,1165.51 307.679,1201.07C316.828,1242.14 328.112,1283.92 345.091,1322.5C376.149,1393.07 421.131,1457.62 462.546,1522.33C521.783,1614.88 580.014,1708.26 629.392,1806.54C659.657,1866.78 687.196,1928.89 707.071,1993.4C724.92,2051.33 742.063,2111.49 743.838,2172.45C747.008,2281.38 733.859,2390.4 708.656,2496.31C699.927,2532.99 689.61,2569.22 678.626,2605.28C672.271,2626.14 661.799,2649.8 662.006,2672.03C662.116,2683.87 671.096,2691.42 675.921,2701.49C681.721,2713.6 683.404,2727.37 683.901,2740.64C685.072,2771.88 678.472,2802.66 677.385,2833.84C675.592,2885.28 678.42,2936.91 682.032,2988.22C690.933,3114.63 709.418,3240.07 718.982,3366.41C737.748,3614.31 738.222,3868.34 685.613,4112.43C658.474,4238.34 614.445,4361.93 533.94,4464.16C515.143,4488.03 494.435,4510.43 471.736,4530.64C458.064,4542.81 442.954,4552.85 428.877,4564.42C410.979,4579.12 397.114,4601.2 385.909,4621.16C364.966,4658.46 351.396,4699.62 341.251,4741.03C326.708,4800.39 319.103,4861.34 314.077,4922.17C305.944,5020.61 304.925,5119.5 304.369,5218.21C304.179,5251.9 304.067,5285.6 303.893,5319.29C303.801,5337.14 302.68,5355.35 303.993,5373.16C314.858,5520.51 349.873,5664.17 401.829,5802.21C426.491,5867.74 454.259,5932.01 481.562,5996.46C490.353,6017.22 499.088,6037.99 507.601,6058.86C512.026,6069.71 517.786,6080.87 520.872,6092.18C524.614,6105.89 524.95,6121.63 526.758,6135.74C530.746,6166.86 534.229,6198.09 535.835,6229.44C539.187,6294.86 534.65,6366.12 490.758,6418.53" style="fill:none;stroke:white;stroke-width:1.4px;"/>
        </g>
        <g transform="matrix(1.06471,1.03443,-1.03443,1.06471,6635.95,419.827)">
            <path d="M402.337,-61.108C415.007,28.617 419.232,119.324 418.193,209.878C417.448,274.819 412.472,339.82 413.698,404.769C414.294,436.37 419.106,467.685 426.415,498.414C429.708,512.256 435.415,526.101 437.911,540.037C438.693,544.399 437.88,549.371 437.729,553.779C437.4,563.415 437.039,573.05 436.647,582.684C434.15,644.024 430.401,705.324 424.619,766.447C418.888,827.032 411.323,887.143 410.249,948.086C408.325,1057.35 422.007,1166.2 444.845,1272.91C503.791,1548.36 617.153,1807.87 714.117,2071.15C767.112,2215.04 808.756,2362.93 849.986,2510.55C888.589,2648.78 926.213,2789.84 937.466,2933.41C941.968,2990.85 945.597,3052.05 933.558,3108.82C921.054,3167.78 894.302,3222.78 871.652,3278.27C847.936,3336.38 827.709,3395.93 811.75,3456.64C766.534,3628.65 770.369,3811.07 786.78,3986.76C801.218,4141.33 827.216,4294.71 857.787,4446.83C898.995,4651.89 949.381,4854.92 999.876,5057.84C1028.98,5174.81 1058.89,5291.75 1083.07,5409.86C1090.34,5445.39 1097.08,5481.07 1102.05,5517C1103.37,5526.5 1104.55,5536.02 1105.54,5545.56C1106.08,5550.85 1107.66,5557.35 1106.7,5562.63C1105.74,5567.91 1101.83,5573.91 1099.46,5578.69C1095.69,5586.29 1091.83,5594.64 1086.06,5600.93C1067.3,5621.4 1036.57,5629.33 1010.45,5634.82C970.907,5643.12 930.211,5645.82 889.921,5647.43C833.896,5649.65 777.781,5649 721.735,5648.07C681.315,5647.39 640.802,5649.94 600.429,5651.89C527.925,5655.4 456.146,5661.45 385.789,5680.38C344.619,5691.45 291.937,5708.15 270.313,5748.68C258.184,5771.42 260.692,5799.9 259.945,5824.91C258.762,5864.53 256.483,5904.15 246.715,5942.72" style="fill:none;stroke:white;stroke-width:1.4px;"/>
        </g>
        <g transform="matrix(1.06471,1.03443,-1.03443,1.06471,7390.46,1152.89)">
            <path d="M236.22,0L236.22,223.906C236.22,233.07 235.429,242.636 236.287,251.76C236.994,259.271 239.294,266.965 240.752,274.373C243.792,289.807 246.816,305.245 249.828,320.685C259.008,367.748 268.162,414.822 276.681,462.011C306.109,625.029 336.707,787.755 372.701,949.473C391.038,1031.86 410.883,1113.91 431.184,1195.83C437.539,1221.48 443.951,1247.11 450.423,1272.72C453.783,1286.02 459.081,1300.05 460.663,1313.66C463.107,1334.69 462.407,1356.51 463.775,1377.67C466.544,1420.51 470.625,1463.25 475.729,1505.87C491.995,1641.7 518.492,1776.1 548.755,1909.44C558.575,1952.7 568.808,1995.88 579.246,2039C582.598,2052.85 585.97,2066.69 589.356,2080.52C590.997,2087.23 591.939,2094.86 594.446,2101.28C596.59,2106.77 600.398,2112.1 603.31,2117.21C610.456,2129.75 617.64,2142.27 624.84,2154.78C644.909,2189.66 665.102,2224.46 684.924,2259.47C729.705,2338.57 773.147,2418.92 806.952,2503.42C838.507,2582.3 860.796,2664.8 861.062,2750.22C861.313,2830.89 854.353,2911.47 842.194,2991.19C836.292,3029.89 828.252,3068.08 821.155,3106.56C809.713,3168.58 797.879,3230.29 782.457,3291.49C755.395,3398.87 720.434,3504.08 680.27,3607.25C643.872,3700.74 603.064,3792.37 563.062,3884.35C548.45,3917.95 533.985,3951.62 520.331,3985.63C513.332,4003.06 505.234,4020.75 500.079,4038.83C488.879,4078.12 482.512,4119.78 476.5,4160.14C462.761,4252.35 459.288,4346.3 470.385,4438.99C473.902,4468.37 478.861,4497.58 485.367,4526.44C488.658,4541.04 493.202,4555.4 496.287,4570.03C502.735,4600.61 508.414,4631.31 515.318,4661.8C531.314,4732.44 549.901,4802.82 559.914,4874.65C567.122,4926.37 569.947,4980.25 556.682,5031.26C552.574,5047.06 546.891,5062.45 539.558,5077.04C502.864,5150.06 429.189,5193.64 358.732,5229.09C328.506,5244.29 297.754,5258.41 267.238,5273.02C259.187,5276.87 251.151,5280.76 243.145,5284.71C240.771,5285.88 236.965,5286.75 236.22,5289.77C234.782,5295.6 236.22,5303.73 236.22,5309.76L236.22,5905.51" style="fill:none;stroke:white;stroke-width:1.4px;"/>
        </g>
        <g transform="matrix(1.06471,1.03443,-1.03443,1.06471,8144.98,1885.95)">
            <path d="M236.22,0L236.22,871.633C236.22,907.401 234.095,943.892 236.22,979.587C236.93,991.5 241.1,1003.98 243.543,1015.65C248.786,1040.72 253.98,1065.8 259.15,1090.89C276.759,1176.33 294.142,1261.81 311.795,1347.24C317.604,1375.35 323.438,1403.46 329.299,1431.57C332.243,1445.68 337.218,1460.69 338.327,1475.06C339.785,1493.95 335.954,1514.88 333.693,1533.63C327.282,1586.77 314.707,1638.74 303.211,1690.93C298.636,1711.7 294.309,1732.54 291.112,1753.57C289.634,1763.29 287.565,1773.55 287.474,1783.4C287.361,1795.64 291.707,1809.29 294.339,1821.19C301.078,1851.68 310.312,1881.64 322.594,1910.36C335.774,1941.18 352.449,1970.46 372.223,1997.52C379.707,2007.77 387.384,2018.91 396.404,2027.87C407.343,2038.74 419.934,2048.28 431.592,2058.37C454.559,2078.24 477.416,2098.25 500.087,2118.47C566.494,2177.68 631.3,2238.74 693.017,2302.85C918.544,2537.13 1113.27,2824.83 1154.54,3154.48C1160.04,3198.42 1162.69,3242.72 1162.25,3287C1161.9,3321.56 1159.66,3356.1 1155.47,3390.41C1154.08,3401.79 1152.47,3413.14 1150.64,3424.46C1150.59,3424.82 1148.48,3437.66 1148.35,3438.01C1145.15,3446.8 1136.38,3454.78 1130.58,3461.93C1116.23,3479.62 1101.61,3497.09 1086.77,3514.38C1034.39,3575.37 979.332,3634.02 923.019,3691.38C795.445,3821.33 660.692,3943.96 532.744,4073.52C485.691,4121.17 439.41,4169.77 396.592,4221.3C362.352,4262.5 329.851,4305.85 304.84,4353.38C290.954,4379.76 278.836,4408 271.806,4437.07C266.032,4460.95 262.619,4485.53 257.788,4509.62C253.82,4529.41 249.513,4549.13 244.58,4568.7C242.09,4578.58 238.128,4588.69 236.483,4598.72C234.64,4609.97 236.22,4622.66 236.22,4634.05L236.22,5905.51" style="fill:none;stroke:white;stroke-width:1.4px;"/>
        </g>
        <g transform="matrix(1.06471,1.03443,-1.03443,1.06471,2863.37,-3245.49)">
            <path d="M472.441,5905.51L472.441,4722.01C472.441,4709.33 474.609,4694.49 472.441,4682.03C471.022,4673.87 465.37,4664.96 462.144,4657.34C454.942,4640.31 447.803,4623.25 440.707,4606.18C417.318,4549.91 393.728,4493.65 372.694,4436.45C316.717,4284.2 281.975,4125.03 281.225,3962.36C280.454,3795.25 314.22,3632.61 375.548,3477.51C399.891,3415.95 428.256,3356.18 454.305,3295.35C460.003,3282.05 464.832,3268.31 470.682,3255.09C475.423,3244.38 483.949,3231.45 482.889,3219.22C482.232,3211.64 476.579,3205.9 471.052,3201.27C461.188,3193.01 450.093,3186.2 439.609,3178.77C404.226,3153.69 372.774,3123.99 345.648,3090.13C286.18,3015.9 245.404,2926.17 221.261,2834.53C214.699,2809.63 209.41,2784.37 205.812,2758.86C203.975,2745.84 201.745,2732.24 201.807,2719.06C201.948,2688.83 206.721,2657.84 209.598,2627.76C215.656,2564.41 223.001,2501.19 231.557,2438.13C254.502,2269.03 282.934,2097.86 334.319,1934.73C344.849,1901.3 356.205,1867.61 370.277,1835.48C385.442,1800.85 403.561,1767.65 417.731,1732.56C434.672,1690.61 447.111,1646.99 457.652,1603.04C461.27,1587.95 464.648,1572.81 467.857,1557.63C469.391,1550.38 471.782,1542.74 472.441,1535.35C474.075,1517.03 472.441,1497.79 472.441,1479.38L472.441,0" style="fill:none;stroke:white;stroke-width:1.4px;"/>
        </g>
        <g transform="matrix(1.06471,1.03443,-1.03443,1.06471,3617.89,-2512.43)">
            <path d="M472.441,5905.51L472.441,5425.71C472.441,5420.94 473.47,5414.75 471.964,5410.15C470.813,5406.64 467.674,5402.92 465.785,5399.72C461.643,5392.72 457.512,5385.71 453.396,5378.69C439.634,5355.22 426.041,5331.65 412.699,5307.94C374.105,5239.36 337.757,5169.54 303.501,5098.69C203.568,4892 122.856,4677.18 47.432,4460.53C23.691,4392.34 0.601,4323.91 -23.956,4256.01C-31.215,4235.93 -38.611,4215.9 -46.544,4196.08C-48.804,4190.44 -51.112,4184.81 -53.498,4179.22C-54.309,4177.32 -56.798,4173.68 -56.789,4171.65C-56.781,4169.62 -48.893,4172.84 -48.216,4173.02C-40.263,4175.18 -32.263,4177.16 -24.224,4178.97C-1.553,4184.08 21.414,4187.86 44.508,4190.44C61.279,4192.31 78.12,4193.54 94.983,4194.15C102.627,4194.43 110.885,4195.39 118.488,4194.33C130.629,4192.64 143.058,4188.06 154.597,4184.06C180.421,4175.13 205.25,4163.42 229.126,4150.17C285.407,4118.94 336.94,4079.18 383.99,4035.4C444.736,3978.88 498.984,3914.54 542.233,3843.64C582.988,3776.82 615.11,3702.07 624.322,3623.78C633.954,3541.92 614.801,3461.53 582.754,3386.54C564.463,3343.74 541.417,3303.39 521.879,3261.23C501.228,3216.67 488.206,3166.9 476.877,3119.29C455.725,3030.4 445.461,2939.2 442.28,2847.98C440.376,2793.38 443.396,2738.69 440.867,2684.15C437.25,2606.17 426.594,2528.39 413.283,2451.53C394.072,2340.6 366.932,2231.1 333.334,2123.66C321.48,2085.76 308.57,2048.21 296.062,2010.52C287.331,1984.21 277.325,1956.9 275.296,1929.03C274.504,1918.15 277.672,1908.41 279.826,1897.83C282.526,1884.58 284.714,1871.21 286.773,1857.85C293.49,1814.24 297.851,1770.31 301.235,1726.33C308.288,1634.67 311.509,1542.77 319.59,1451.18C327.864,1357.41 341.22,1264.1 362.703,1172.39C379.988,1098.61 402.324,1026.08 428.786,955.075C437.793,930.908 447.263,906.914 457.122,883.083C461.812,871.743 469.382,859.398 472.173,847.493C474.154,839.04 472.441,828.324 472.441,819.655L472.441,0" style="fill:none;stroke:white;stroke-width:1.4px;"/>
        </g>
        <g transform="matrix(1.06471,1.03443,-1.03443,1.06471,4372.4,-1779.36)">
            <path d="M497.952,6032.82C496.767,5997.58 485.456,5963.53 470.628,5931.82C450.489,5888.77 423.965,5848.81 396.244,5810.33C350.569,5746.93 301.021,5685.41 249.405,5626.74C192.128,5561.65 131.007,5500.02 74.099,5434.55C28.854,5382.51 -13.375,5328.95 -47.25,5268.74C-54.836,5255.26 -62.271,5241.7 -69.547,5228.04C-72.656,5222.21 -78.377,5214.93 -78.196,5208.22C-76.029,5128.11 -30.134,5054.54 18.415,4994.11C55.613,4947.81 96.813,4904.81 137.647,4861.75C184.349,4812.49 231.042,4763.23 275.996,4712.36C491.807,4468.17 681.236,4179.17 723.619,3849.26C729.124,3806.41 729.847,3763 730.368,3719.84C731.202,3650.76 729.055,3581.65 724.346,3512.72C715.551,3384 697.676,3255.97 671.987,3129.55C666.774,3103.9 659.444,3078.92 653.8,3053.37C621.295,2906.25 581.987,2760.67 539.345,2616.15C515.343,2534.8 490.268,2453.76 463.932,2373.14C458.052,2355.14 450.241,2338.07 443.52,2320.39C434.814,2297.48 427.551,2273.98 422.692,2249.94C417.452,2224.02 414.365,2196.59 416.566,2170.14C420.826,2118.91 440.135,2070.48 453.61,2021.29C466.383,1974.66 474.375,1927.07 477.835,1878.85C479.298,1858.47 480.05,1838.03 480.305,1817.6C480.538,1798.96 480.651,1782.32 473.221,1764.79C462.481,1739.46 446.076,1716.45 429.656,1694.55C406.503,1663.68 381.298,1634.35 355.632,1605.55C280.742,1521.52 200.815,1442.17 124.909,1359.08C90.76,1321.7 56.612,1283.66 27.628,1242.05C15.295,1224.34 -0.313,1202.95 -4.665,1181.3C-6.396,1172.68 -3.594,1161.51 -2.687,1152.83C-0.282,1129.81 3.133,1106.9 7.512,1084.17C25.462,991.014 59.782,901.925 102.045,817.245C137.792,745.62 183.057,679.239 225.114,611.23C282.638,518.208 337.923,423.814 388.904,327.031C408.51,289.812 427.479,252.26 445.84,214.411C451.815,202.094 457.723,189.745 463.558,177.361C466.247,171.655 470.141,165.562 471.906,159.513C473.303,154.724 472.441,148.869 472.441,143.939L472.441,0" style="fill:none;stroke:white;stroke-width:1.4px;"/>
        </g>
        <g transform="matrix(1.06471,1.03443,-1.03443,1.06471,5126.92,-1046.3)">
            <path d="M794.401,6557.71C802.161,6556.71 809.897,6555.52 817.587,6554.07C820.079,6553.61 824.873,6553.55 826.988,6552.18C828.109,6551.46 828.978,6548.82 829.399,6547.78C831.424,6542.75 833.251,6537.64 834.884,6532.47C841.96,6510.06 845.333,6486.59 845.953,6463.13C848.405,6370.4 812.894,6276.94 771.134,6195.73C758.184,6170.54 741.139,6146.84 725.651,6123.16C695.949,6077.75 665.266,6032.99 634.821,5988.08C523.649,5824.09 407.917,5652.78 363.023,5456.81C348.794,5394.7 342.482,5331.07 343.272,5267.38C344.038,5205.61 351.311,5144.05 359.738,5082.92C374.173,4978.22 394.898,4874.48 410.831,4770.01C424.294,4681.73 432.559,4593.15 450.925,4505.59C460.974,4457.69 472.978,4410.22 486.328,4363.13C493.792,4336.8 502.57,4310.77 509.503,4284.3C534.623,4188.4 556.79,4091.61 580.683,3995.39C600.949,3913.78 621.129,3832.15 640.7,3750.37C650.35,3710.05 658.178,3669.05 669.19,3629.09C701.869,3510.49 767.234,3405.53 817.539,3294.27C836.096,3253.23 850.183,3210.42 862.606,3167.16C879.3,3109.03 892.074,3049.14 894.519,2988.55C896.634,2936.15 890.364,2883.09 870.404,2834.3C850.859,2786.53 818.522,2748.42 785.476,2709.62C778.028,2700.87 771.5,2691.42 764.146,2682.63C745.719,2660.61 726.233,2639.34 705.717,2619.25C691.526,2605.34 676.648,2592.12 661.663,2579.08C617.416,2540.59 552.668,2497.74 555.665,2431.27C557.205,2397.11 574.606,2365.07 592.79,2337.01C608.501,2312.76 626.368,2289.94 644.871,2267.78C654.07,2256.76 663.093,2245.01 673.261,2234.87C691.242,2216.94 711.308,2201.22 729.019,2182.9C758.678,2152.23 784.994,2117.89 802.245,2078.64C821.659,2034.48 828.131,1986.22 825.37,1938.27C821.521,1871.43 801.686,1806.64 778.631,1744.2C765.625,1708.98 752.309,1673.12 735.15,1639.69C692.56,1556.72 639.571,1478.57 610.529,1389.23C592.126,1332.62 586.721,1274.37 592.976,1215.25C598.047,1167.33 614.094,1118.41 606.396,1070.19C596.526,1008.38 569.854,948.756 543.601,892.446C498.824,796.405 446.13,703.457 387.061,615.493C355.535,568.545 321.861,522.694 283.715,480.87C258.186,452.88 230.391,426.154 198.497,405.467C174.938,390.185 148.403,378.018 120.126,375.562C108.245,374.53 96.234,375.276 84.593,377.889C82.209,378.425 79.89,379.237 77.494,379.717C76.533,379.91 75.076,380.732 74.56,379.899C74.081,379.127 75.727,378.506 76.31,377.809C78.077,375.695 79.836,373.576 81.589,371.45C89.478,361.885 97.229,352.206 104.853,342.428C136.653,301.644 166.293,259.175 193.945,215.477C266.551,100.744 325.037,-22.607 368.825,-151.099" style="fill:none;stroke:white;stroke-width:1.4px;"/>
        </g>
        <g transform="matrix(1.06471,1.03443,-1.03443,1.06471,5881.43,-313.236)">
            <path d="M628.021,6253.18C654.051,6181.53 634.623,6099.98 620.76,6027.9C609.726,5970.53 598.403,5913.03 594.458,5854.64C593.188,5835.84 592.68,5816.98 593.206,5798.14C593.489,5788.01 595.353,5777.38 594.575,5767.29C590.806,5718.46 578.448,5667.9 592.044,5619.7C606.888,5567.07 634.859,5517.36 659.56,5468.89C696.278,5396.85 734.359,5322.53 788.73,5261.96C813.808,5234.02 844.214,5213.89 872.331,5189.43C900.558,5164.87 925.898,5137.09 948.376,5107.2C1013.02,5021.24 1054.73,4919.6 1081.12,4815.89C1130.81,4620.59 1134.22,4412.59 1113.56,4212.97C1104.4,4124.41 1088.22,4036.59 1074.2,3948.7C1052.1,3810.27 1030.06,3671.81 1010.64,3532.97C998.23,3444.3 985.965,3355.34 978.624,3266.08C973.803,3207.46 970.269,3148.66 969.967,3089.82C969.739,3045.51 970.8,3000.61 978.246,2956.83C981.527,2937.54 985.761,2916.89 995.912,2899.87C1002.69,2888.51 1013.39,2879.11 1021.26,2868.31C1029.54,2856.92 1034.49,2844.22 1037.82,2830.59C1047.7,2790.18 1049.34,2747.65 1051.31,2706.3C1055.36,2621.43 1051.12,2536.28 1040.05,2452.08C1023.08,2323.04 977.256,2201.63 925.599,2082.84C866.347,1946.58 798.917,1814.05 739.737,1677.76C713.021,1616.24 686.751,1553.44 670.562,1488.18C663.096,1458.08 659.492,1427.21 654.504,1396.64C647.839,1355.78 640.414,1315.05 632.872,1274.34C610.592,1154.08 585.927,1031.95 597.75,909.071C601.245,872.735 606.804,836.29 620.088,802.119C649.176,727.299 702.972,663.619 747.322,597.593C798.918,520.78 843.188,439.87 884.547,357.167C895.961,334.343 907.227,311.445 918.527,288.565C925.513,274.421 934.016,260.408 937.745,244.969C943.742,220.15 943.547,193.838 941.84,168.522C939.065,127.355 931.121,86.535 920.593,46.693C892.99,-57.774 846.764,-159.77 780.972,-245.823C741.879,-296.954 694.66,-343.077 638.38,-374.966C563.716,-417.272 477.462,-428.292 394.359,-407.147C365.611,-399.833 337.771,-389.183 311.11,-376.223C299.904,-370.776 288.797,-365.006 278.074,-358.651C277.321,-358.205 279.686,-359.333 280.486,-359.69C281.702,-360.233 282.907,-360.8 284.101,-361.39C287.817,-363.225 291.424,-365.277 294.921,-367.499" style="fill:none;stroke:white;stroke-width:1.4px;"/>
        </g>
        <g transform="matrix(1.06471,1.03443,-1.03443,1.06471,6635.95,419.827)">
            <path d="M472.441,5905.51L472.441,5797.56C472.441,5780.72 470.924,5763.08 472.59,5746.33C475.537,5716.7 487.726,5685.09 507.787,5662.98C547.538,5619.18 610.617,5604.74 666.292,5594.44C751.681,5578.65 840.117,5580.72 926.605,5576.73C954.327,5575.44 982.069,5573.88 1009.67,5570.9C1022.52,5569.52 1036.83,5568.94 1049.25,5565.18C1064.38,5560.6 1079.65,5551.18 1093.24,5543.24C1136.35,5518.07 1172.63,5482.52 1192.78,5436.33C1202.31,5414.47 1208.15,5391.15 1211.22,5367.54C1215.42,5335.21 1216.45,5299.57 1211,5267.32C1208.6,5253.18 1200.67,5238.67 1195.63,5225.26C1186.13,5199.99 1176.84,5174.64 1167.74,5149.22C1141.25,5075.18 1116.41,5000.53 1093.39,4925.34C1015.51,4670.89 954.588,4407.06 943.489,4140.36C935.96,3959.41 956.516,3780.34 1009.04,3606.92C1056.8,3449.25 1126.13,3296.89 1150.43,3132.81C1158.16,3080.6 1160.3,3027.8 1157.51,2975.12C1151.8,2867.18 1129.35,2761.79 1102.48,2657.39C1073.52,2544.89 1039.38,2433.8 1005.06,2322.84C973.006,2219.2 940.617,2115.66 909.693,2011.67C888.924,1941.84 869.471,1871.62 848.829,1801.75C811.259,1674.57 771.828,1547.88 739.536,1419.22C703.277,1274.76 676.526,1127.82 669.384,978.845C666.674,922.322 666.772,865.744 667.875,809.181C668.256,789.692 668.728,770.205 669.113,750.716C669.295,741.504 670.698,731.3 669.383,722.169C667.978,712.417 664.103,702.432 661.583,692.893C656.35,673.082 651.205,653.248 646.157,633.39C626.839,557.39 605.591,481.514 591.6,404.296C578.748,333.367 573.674,261.879 565.833,190.322C557.719,116.271 546.738,42.494 531.226,-30.387" style="fill:none;stroke:white;stroke-width:1.4px;"/>
        </g>
        <g transform="matrix(1.06471,1.03443,-1.03443,1.06471,7390.46,1152.89)">
            <path d="M472.441,5905.51L472.441,5077.86C472.441,5072.68 470.563,5063.04 472.845,5058.33C473.607,5056.75 477.694,5054.57 479.1,5053.47C484.569,5049.19 490.004,5044.88 495.393,5040.5C512.713,5026.44 529.576,5011.78 545.386,4996.03C593.461,4948.13 627.287,4890.36 638.424,4822.93C655.74,4718.06 628.075,4611.56 622.399,4506.88C619.542,4454.2 621.476,4400.21 638.041,4349.7C641.317,4339.71 645.516,4330.3 650.307,4320.95C652.86,4315.96 656.604,4310.87 658.42,4305.58C661.244,4297.36 662.508,4288.35 664.988,4279.97C670.505,4261.33 677.337,4243.1 684.809,4225.17C715.449,4151.62 755.362,4082.02 793.778,4012.37C843.739,3921.78 893.312,3830.94 937.085,3737.15C1055.6,3483.22 1126.34,3203.16 1126.26,2922.02C1126.21,2753.3 1097.87,2585.91 1043.44,2426.25C1023.8,2368.63 1001.71,2311.6 974.825,2256.95C928.968,2163.73 872.475,2076.35 820.313,1986.66C782.497,1921.63 745.723,1854.78 722.197,1783.05C716.243,1764.89 716.283,1744.75 714.778,1725.77C712.618,1698.54 710.913,1671.26 709.789,1643.96C709.214,1630 709.69,1615.77 708.535,1601.86C707.954,1594.85 705.405,1587.7 703.741,1580.89C700.918,1569.33 698.102,1557.76 695.293,1546.19C686.535,1510.12 677.851,1474.03 669.266,1437.92C616.168,1214.57 567.77,990.253 524.86,764.724C513.352,704.238 501.994,643.722 490.195,583.291C486.385,563.779 482.527,544.275 478.598,524.786C476.646,515.106 473.739,505.188 472.612,495.384C470.535,477.333 472.441,457.989 472.441,439.815L472.441,0" style="fill:none;stroke:white;stroke-width:1.4px;"/>
        </g>
        <g transform="matrix(1.06471,1.03443,-1.03443,1.06471,8144.98,1885.95)">
            <path d="M472.441,5905.51L472.441,4414.14C472.441,4399.81 470.776,4384.37 472.441,4370.16C473.182,4363.83 476.76,4356.76 478.89,4350.76C484.314,4335.49 490.501,4320.49 497.413,4305.83C527.315,4242.41 569.835,4185.58 614.234,4131.69C666.319,4068.47 722.196,4008.42 778.195,3948.68C937.118,3779.15 1101.68,3611.18 1228.48,3415.28C1314.38,3282.57 1387.26,3129.5 1385.68,2968.07C1385.48,2947.91 1384.09,2927.76 1381.44,2907.76C1380.66,2901.88 1380.71,2893.04 1378.33,2887.6C1375.29,2880.64 1368.06,2873.59 1363.44,2867.6C1353.05,2854.15 1342.44,2840.87 1331.62,2827.76C1294,2782.14 1253.94,2738.55 1212.14,2696.73C1076.88,2561.41 924.03,2444.24 764.33,2339.32C721.906,2311.45 678.915,2284.44 635.454,2258.22C612.509,2244.37 588.263,2231.92 565.958,2217.1C554.438,2209.44 544.14,2196.85 534.767,2186.75C508.124,2158.04 485.837,2125.3 470.592,2089.15C429.743,1992.29 444.963,1884.63 461.903,1784.23C466.11,1759.29 470.556,1734.39 474.787,1709.46C476.815,1697.51 477.751,1684.82 480.766,1673.1C485.898,1653.14 494.051,1633.94 499.025,1613.82C509.122,1572.98 513.965,1531.02 513.853,1488.96C513.695,1429.51 503.518,1371.38 491.354,1313.4C487.239,1293.78 483.107,1274.17 478.951,1254.56C476.81,1244.46 473.274,1233.78 472.441,1223.49C471.271,1209.04 472.441,1194 472.441,1179.5L472.441,0" style="fill:none;stroke:white;stroke-width:1.4px;"/>
        </g>
        <g transform="matrix(1.06471,1.03443,-1.03443,1.06471,2863.37,-3245.49)">
            <path d="M708.661,0L708.661,1259.47C708.661,1275.02 710.454,1291.79 708.393,1307.2C705.387,1329.68 699.46,1352.14 695.279,1374.46C687.078,1418.23 679.445,1462.1 671.736,1505.96C657.269,1588.26 645.346,1675.03 609.662,1751.47C600.773,1770.51 589.812,1788.42 576.019,1804.31C557.114,1826.08 534.753,1844.56 518.114,1868.31C505.001,1887.03 496.065,1907.77 487.712,1928.93C474.111,1963.4 463.752,1999.12 454.782,2035.04C450.703,2051.37 446.945,2067.78 443.442,2084.25C441.713,2092.38 439.109,2100.92 438.85,2109.26C437.72,2145.62 443.327,2183.24 447.572,2219.25C455.147,2283.52 465.403,2347.48 477.015,2411.14C511.12,2598.08 556.641,2783.67 616.525,2964.08C639.845,3034.34 665.509,3103.93 695.473,3171.64C720.123,3227.35 752.542,3280.98 746.94,3344.27C739.435,3429.06 668.579,3492.04 597.569,3529.26C582.106,3537.36 566.149,3544.52 549.845,3550.75C542.008,3553.75 531.502,3555.44 524.518,3560.06C517.499,3564.71 511.291,3573.81 505.655,3580.05C491.22,3596.05 477.644,3612.83 465.16,3630.39C401.877,3719.43 373.998,3829.07 373.099,3937.43C372.377,4024.48 388.834,4110.87 415.048,4193.63C432.552,4248.9 454.961,4302.47 475.918,4356.48C520.491,4471.35 564.473,4586.47 611.177,4700.5C632.419,4752.36 654.216,4804 676.983,4855.21C684.07,4871.15 691.252,4887.05 698.545,4902.9C701.75,4909.86 707.597,4918.29 708.661,4925.93C710.084,4936.13 708.661,4947.59 708.661,4957.91C708.661,4981.9 708.661,5685.6 708.661,5905.51" style="fill:none;stroke:white;stroke-width:1.4px;"/>
        </g>
        <g transform="matrix(1.06471,1.03443,-1.03443,1.06471,3617.89,-2512.43)">
            <path d="M708.661,0L708.661,595.749C708.661,602.216 709.505,609.337 708.661,615.741C708.19,619.321 705.975,622.476 704.336,625.594C700.435,633.019 696.54,640.446 692.655,647.879C679.817,672.443 667.096,697.068 654.643,721.83C616.895,796.885 581.664,873.297 552.408,952.097C517.303,1046.66 491.273,1144.44 476.749,1244.3C463.051,1338.48 459.744,1433.67 461.492,1528.73C462.158,1564.99 463.486,1601.22 464.925,1637.45C465.717,1657.39 465.145,1678.01 467.942,1697.77C471.604,1723.65 481.267,1748.65 491.428,1772.58C505.329,1805.31 521.546,1837.03 538.091,1868.49C569.22,1927.67 602.099,1985.92 632.638,2045.41C653.825,2086.68 674.655,2128.62 690.174,2172.42C704.339,2212.4 708.198,2254.78 711.249,2296.85C714.612,2343.24 716.778,2389.71 719.661,2436.13C728.403,2576.88 740.704,2717.28 767.496,2855.91C791.969,2982.53 830.624,3105.8 877.237,3225.92C912.768,3317.48 958.324,3405.15 974.413,3502.94C994.541,3625.28 975.645,3750.16 938.238,3867.34C922.964,3915.2 904.619,3962.04 884.091,4007.88C877.723,4022.09 871.142,4036.21 864.364,4050.24C861.531,4056.1 858.998,4062.67 855.422,4068.13C847.535,4080.16 836.41,4091.08 826.882,4101.84C806.068,4125.34 784.155,4147.86 761.338,4169.42C674.038,4251.9 573.874,4320 467.745,4375.86C399.219,4411.93 328.1,4442.31 256.382,4471.37C236.165,4479.56 215.915,4487.68 195.886,4496.32C190.061,4498.84 184.257,4501.4 178.49,4504.04C178.486,4504.04 173.045,4506.54 173.026,4506.57C172.566,4507.28 174.025,4511.39 174.152,4511.8C175.897,4517.43 177.646,4523.07 179.403,4528.7C186.56,4551.64 193.863,4574.54 201.327,4597.39C232.145,4691.72 265.032,4785.38 302.202,4877.41C374.208,5055.68 457.265,5229.33 554.237,5395.4C589.261,5455.39 628.034,5513.03 663.744,5572.59C674.808,5591.05 685.547,5609.7 695.659,5628.7C699.624,5636.15 706.72,5645.56 708.517,5653.8C710.101,5661.06 708.661,5670.17 708.661,5677.61C708.661,5696.27 708.661,5848.2 708.661,5905.51" style="fill:none;stroke:white;stroke-width:1.4px;"/>
        </g>
        <g transform="matrix(1.06471,1.03443,-1.03443,1.06471,4372.4,-1779.36)">
            <path d="M689.665,-21.437C624.473,144.394 543.625,305.182 452.498,458.248C415.07,521.116 374.845,582.336 334.587,643.411C288.799,712.877 241.48,781.979 203.267,856.025C193.388,875.168 184.209,894.646 176.214,914.654C173.142,922.343 166.801,932.967 167.468,941.332C169.396,965.48 186.781,989.226 200.526,1008.03C235.262,1055.56 277.731,1097.58 319.713,1138.62C411.61,1228.45 508.452,1313.06 600.689,1402.54C632.519,1433.42 663.961,1464.82 693.401,1498.01C714.046,1521.29 734.955,1545.68 749.768,1573.22C758.214,1588.92 760.886,1605.32 764.158,1622.61C768.308,1644.55 772.286,1666.51 775.882,1688.55C792.44,1789.99 804.598,1900.62 760.438,1997.06C732.149,2058.84 685.339,2110.08 657.173,2171.99C631.153,2229.17 624.94,2291.41 632.483,2353.45C640.566,2419.93 671.181,2478.6 700.806,2537.64C706.508,2549 710.069,2561.64 714.844,2573.43C723.141,2593.93 732.362,2614.04 742.566,2633.65C770.425,2687.2 805.76,2736.09 842.563,2783.76C885.191,2838.99 930.596,2893.58 960.897,2956.9C973.013,2982.22 986.515,3010.24 985.02,3038.89C983.827,3061.74 976.676,3084.06 968.639,3105.31C954.858,3141.75 936.973,3176.44 922.054,3212.4C912.498,3235.43 903.311,3259.5 900.53,3284.46C898.836,3299.66 900.15,3315.29 900.281,3330.56C900.493,3355.42 900.404,3380.28 900.033,3405.14C898.936,3478.76 895.342,3552.34 889.852,3625.76C879.751,3760.83 860.36,3894.91 835.269,4027.96C821.389,4101.56 807.539,4175.43 787.988,4247.77C761.134,4347.13 724.825,4443.9 680.676,4536.86C607.363,4691.23 511.982,4833.45 402.65,4964.5C369.175,5004.63 334.477,5043.69 300.118,5083.05C287.919,5097.02 275.78,5111.05 263.888,5125.29C258.425,5131.83 252.092,5138.31 247.397,5145.43C240.248,5156.27 235.63,5170.1 231.219,5182.24C217.589,5219.74 211.772,5259.63 213.279,5299.48C215.134,5348.52 227.472,5396.69 245.029,5442.34C249.148,5453.06 253.567,5463.65 258.239,5474.14C260.879,5480.06 263.122,5487.15 267.402,5492.13C272.737,5498.34 279.833,5503.65 285.848,5509.2C297.048,5519.55 308.262,5529.89 319.48,5540.21C353.88,5571.89 387.805,5604.01 421.169,5636.77C519.689,5733.52 616.067,5833.94 700.523,5943.39C738.655,5992.8 775.63,6044.81 801.416,6101.92C816.217,6134.7 827.896,6170.97 824.835,6207.39" style="fill:none;stroke:white;stroke-width:1.4px;"/>
        </g>
        <g transform="matrix(1.06471,1.03443,-1.03443,1.06471,5126.92,-1046.3)">
            <path d="M576.233,-224.801C554.049,-152.705 524.945,-82.504 486.504,-17.498C473.749,4.072 459.979,25.053 445.072,45.199C439.905,52.183 434.6,59.065 429.15,65.83C427.698,67.632 426.236,69.425 424.764,71.21C424.277,71.8 423.788,72.39 423.299,72.978C422.811,73.565 421.122,75.012 421.832,74.735C433.155,70.32 443.766,63.905 455.155,59.457C485.563,47.581 518.108,41.041 550.822,42.483C624.609,45.735 688.071,89.27 737.451,141.251C778.745,184.719 812.569,235.039 841.996,287.112C881.064,356.245 912.852,429.635 938.345,504.801C960.361,569.717 978.677,637.023 985.765,705.374C989.377,740.203 991.461,778.95 980.118,812.703C971.899,837.16 959.691,861.014 948.621,884.286C917.567,949.569 880.332,1011.2 841.446,1072.04C827.707,1093.54 813.913,1115.02 800.976,1137.01C791.081,1153.84 781.346,1170.67 775.971,1189.57C769.605,1211.95 768.934,1235.49 772.286,1258.44C777.774,1296.01 792.87,1331.77 810.311,1365.23C835.666,1413.88 867.059,1459.27 899.519,1503.38C952.75,1575.73 1009.23,1645.61 1060.04,1719.74C1096.65,1773.17 1132.93,1829.4 1154.83,1890.75C1167.18,1925.34 1173.9,1962.85 1177.46,1999.34C1181.96,2045.45 1179.33,2092.31 1166.65,2137.01C1156.61,2172.43 1139.62,2204.93 1122.46,2237.31C1098.39,2282.72 1072.43,2327.08 1045.88,2371.07C1027.6,2401.35 1008.8,2431.36 991.621,2462.28C980.817,2481.72 968.679,2502.8 964.978,2525.06C960.664,2551 979.963,2563.46 998.313,2577.47C1014.58,2589.89 1030.5,2602.61 1044.49,2617.62C1077.13,2652.68 1097.95,2696.7 1111.2,2742.38C1115.91,2758.62 1121.28,2776.04 1123.03,2792.9C1125.6,2817.76 1122.6,2844.5 1120.44,2869.27C1115.27,2928.55 1103.56,2986.8 1094.25,3045.49C1073.53,3176.12 1057.25,3307.43 1034.68,3437.78C1027.55,3478.99 1019.4,3519.95 1011.15,3560.94C989.949,3666.28 963.595,3772.37 909.64,3866.36C893.711,3894.11 875.368,3920.56 854.021,3944.43C839.933,3960.19 823.981,3973.81 810.691,3990.3C766.424,4045.2 730.506,4106.35 706.087,4172.6C679.759,4244.02 665.17,4321.27 662.166,4397.32C661.194,4421.92 662.341,4446.72 663.13,4471.31C664.558,4515.82 667.075,4560.28 670.197,4604.69C675.885,4685.61 683.723,4766.34 691.106,4847.11C696.25,4903.37 701.684,4959.77 703.41,5016.26C705.517,5085.21 701.457,5154.29 703.429,5223.3C706.526,5331.67 719.391,5439.46 748.772,5544.01C786.292,5677.52 848.332,5802.03 915.798,5922.63C967.33,6014.74 1022.68,6104.88 1070.31,6199.13C1094.1,6246.21 1116.27,6294.65 1131.16,6345.37C1135.42,6359.89 1139.04,6374.61 1141.7,6389.51C1142.68,6394.96 1144.33,6401.08 1144.3,6406.63C1144.28,6411.15 1140.86,6416.26 1138.95,6420.23C1133.76,6431.03 1128.04,6441.97 1120.9,6451.64C1093.37,6488.94 1058.13,6519.55 1015.69,6538.61" style="fill:none;stroke:white;stroke-width:1.4px;"/>
        </g>
        <g transform="matrix(1.06471,1.03443,-1.03443,1.06471,5881.43,-313.236)">
            <path d="M860.351,-335.403C903.983,-288.261 937.28,-231.907 964.151,-173.834C991.95,-113.755 1013.5,-50.344 1027.28,14.429C1033.56,43.979 1040.26,75.973 1039.2,106.373C1038.38,130.027 1032.6,154.619 1028.8,177.965C1020.48,229.129 1010.21,279.932 999.328,330.607C992.983,360.157 986.403,389.669 980.738,419.36C977.961,433.916 977.455,450.355 973.027,464.438C963.563,494.539 949.514,523.537 938.333,553.045C924.035,590.778 912.715,629.629 903.502,668.904C879.813,769.889 874.046,873.466 868.796,976.719C866.633,1019.24 862.43,1062.06 861.833,1104.61C861.346,1139.31 863.639,1174.13 867.353,1208.61C878.696,1313.92 905.052,1417.29 936.964,1518.08C970.791,1624.92 1010.72,1730.27 1054.62,1833.37C1108.14,1959.02 1168.21,2081.82 1219.33,2208.51C1250.43,2285.62 1279.01,2363.88 1301.54,2443.95C1321.99,2516.6 1337.19,2590.88 1350.08,2665.21C1362.32,2735.85 1371.78,2807.35 1373.97,2879.08C1375.34,2924.09 1374.8,2971.1 1362.12,3014.69C1358.12,3028.45 1352.87,3042.9 1344.95,3054.95C1341.01,3060.93 1333.37,3065.74 1328.57,3071.27C1318.94,3082.37 1310.95,3094.85 1304.14,3107.85C1278.77,3156.31 1267.69,3211.89 1260.7,3265.66C1247.38,3368.17 1251.24,3472.49 1259.08,3575.28C1269.34,3709.89 1288.15,3843.8 1309.61,3977.03C1353.4,4248.9 1409.6,4518.57 1460.22,4789.2C1472.92,4857.09 1485.27,4925.04 1496.82,4993.13C1503.03,5029.75 1510.31,5066.56 1514.2,5103.51C1520.32,5161.59 1519.52,5220.65 1510.39,5278.38C1498.76,5351.93 1472.88,5424.03 1427.82,5483.87C1382.28,5544.36 1317.65,5590.08 1249,5620.92C1230.3,5629.32 1211.19,5636.78 1191.95,5643.84C1184.56,5646.55 1176.61,5650.53 1168.91,5652.12C1159.71,5654.03 1149.37,5653.44 1139.99,5654.04C1121.26,5655.23 1102.55,5656.61 1083.85,5658.24C1021.12,5663.7 957.853,5671.21 896.866,5687.4C858.704,5697.53 816.594,5711.17 787.624,5739.39C757.509,5768.73 760.728,5812.91 763.726,5851.74C769.7,5929.12 792.913,6008.3 774.498,6085.66" style="fill:none;stroke:white;stroke-width:1.4px;"/>
        </g>
        <g transform="matrix(1.06471,1.03443,-1.03443,1.06471,6635.95,419.827)">
            <path d="M708.661,0C708.661,10.71 711.45,20.724 713.716,31.162C717.203,47.223 720.567,63.311 723.817,79.422C733.584,127.836 742.116,176.478 750.576,225.134C780.17,395.346 810.553,565.451 849.054,733.914C863.097,795.359 877.948,856.617 893.444,917.711C898.547,937.831 903.721,957.933 908.96,978.017C911.427,987.473 915.285,997.429 916.595,1007.1C918.185,1018.84 917.271,1031.46 917.718,1043.31C918.659,1068.25 919.991,1093.17 921.736,1118.07C926.584,1187.21 935.118,1256.11 945.383,1324.64C982.196,1570.42 1043.11,1810.89 1111.86,2049.48C1139.89,2146.74 1169.01,2243.68 1197.18,2340.89C1205.99,2371.3 1214.7,2401.74 1223.22,2432.23C1228.13,2449.82 1231.94,2468.17 1238.15,2485.35C1248.73,2514.6 1260.87,2543.35 1271.9,2572.45C1317.26,2692.09 1361.59,2816.9 1361.8,2946.39C1361.92,3026.2 1342.65,3101.45 1321.21,3177.71C1302.4,3244.66 1282.44,3311.28 1261.28,3377.53C1208.74,3542.01 1146.4,3703.76 1105.2,3871.67C1077.65,3983.98 1060.93,4098.75 1058.55,4214.44C1054.69,4401.51 1086.44,4588.8 1144.41,4766.42C1155.17,4799.4 1166.88,4832.07 1179.58,4864.35C1185.65,4879.8 1192.92,4894.95 1198.53,4910.57C1204.36,4926.8 1207.97,4944.3 1212.3,4961C1221.64,4997.07 1229.94,5033.48 1235.46,5070.35C1243.23,5122.23 1246.07,5176.71 1231.73,5227.75C1227.44,5243 1221.59,5257.81 1214.06,5271.75C1166.38,5360.14 1062.05,5397.6 972.005,5426.19C943.833,5435.14 915.654,5443.43 886.901,5450.27C840,5461.43 792.369,5473.07 748.691,5493.99C737.822,5499.2 727.235,5505.03 717.187,5511.69C715.434,5512.85 709.392,5515.72 708.661,5517.68C707.584,5520.56 708.661,5526.57 708.661,5529.67C708.661,5537.67 708.661,5814.88 708.661,5905.51" style="fill:none;stroke:white;stroke-width:1.4px;"/>
        </g>
        <g transform="matrix(1.06471,1.03443,-1.03443,1.06471,7390.46,1152.89)">
            <path d="M708.661,0L708.661,711.7C708.661,720.65 707.703,730.215 708.952,739.087C712.393,763.522 719.012,787.927 723.892,812.127C733.59,860.226 743.113,908.359 752.689,956.482C784.072,1114.19 816.34,1271.71 850.717,1428.8C859.025,1466.76 867.431,1504.7 875.917,1542.62C879.922,1560.52 885.802,1578.92 888.159,1597.1C889.036,1603.85 887.593,1611.44 887.284,1618.24C886.649,1632.25 886.304,1646.28 886.46,1660.31C886.941,1703.44 892.591,1746.6 907.744,1787.18C914.258,1804.63 922.959,1820.64 931.514,1837.11C954.49,1881.33 981.295,1923.19 1008.72,1964.75C1072.89,2061.99 1142.25,2155.62 1204.19,2254.36C1275.45,2367.98 1338.33,2487.11 1385.03,2613.02C1444.5,2773.37 1476.76,2943.34 1476.25,3114.52C1475.59,3334.66 1421.7,3553.28 1325.2,3750.83C1301.74,3798.85 1275.23,3844.89 1246.85,3890.15C1239.24,3902.28 1231.54,3914.35 1223.77,3926.36C1218.79,3934.06 1214.21,3942.92 1207.98,3949.7C1199.1,3959.35 1187.95,3967.64 1178.2,3976.42C1158.93,3993.79 1139.72,4011.23 1120.62,4028.79C1047.35,4096.16 974.761,4165.01 909.47,4240.27C866.78,4289.47 824.672,4342.76 799.489,4403.41C795.28,4413.55 794.254,4424.85 792.858,4435.68C790.206,4456.27 788.827,4477.01 787.805,4497.73C784.923,4556.19 784.398,4614.96 772.785,4672.56C765.387,4709.26 753.545,4744.91 737.154,4778.58C731.388,4790.42 725.103,4802.01 718.39,4813.34C715.621,4818.01 709.515,4824.59 708.661,4829.97C706.861,4841.31 708.661,4854.45 708.661,4865.95C708.661,4891.27 708.661,5662.95 708.661,5905.51" style="fill:none;stroke:white;stroke-width:1.4px;"/>
        </g>
        <g transform="matrix(1.06471,1.03443,-1.03443,1.06471,8144.98,1885.95)">
            <path d="M708.661,0L708.661,1407.41C708.661,1427.09 706.853,1447.73 708.707,1467.31C710.434,1485.55 715.58,1503.82 717.968,1522.06C722.666,1557.94 724.201,1594.39 723.068,1630.56C719.568,1742.28 685.383,1847.77 651.53,1953.25C622.629,2043.29 591.953,2141.21 616.343,2235.95C634.279,2305.62 680.78,2362.66 735.31,2407.83C744.022,2415.04 752.94,2422.02 761.747,2429.12C767.562,2433.8 773.355,2439.58 779.847,2443.3C796.1,2452.63 813.305,2460.55 829.792,2469.48C867.928,2490.16 905.39,2512.09 941.857,2535.59C1106.26,2641.53 1264.25,2788.57 1308.38,2986.72C1316.1,3021.39 1320.15,3056.85 1320.66,3092.36C1322.32,3207.71 1286.87,3320.25 1236.73,3423.03C1159.36,3581.65 1048.26,3721.48 935.849,3856.4C878.908,3924.74 820.487,3991.96 765.853,4062.19C751.735,4080.34 737.904,4098.71 724.612,4117.48C721.01,4122.56 717.447,4127.68 713.932,4132.82C711.961,4135.71 709.237,4138.67 708.661,4142.26C707.653,4148.54 708.661,4155.87 708.661,4162.25L708.661,4714.01C708.661,5111.18 708.661,5508.35 708.661,5905.51" style="fill:none;stroke:white;stroke-width:1.4px;"/>
        </g>
    </g>
</svg>
