<?xml version="1.0" encoding="UTF-8" standalone="no"?>
<!DOCTYPE svg PUBLIC "-//W3C//DTD SVG 1.1//EN" "http://www.w3.org/Graphics/SVG/1.1/DTD/svg11.dtd">
<svg width="100%" height="100%" viewBox="0 0 993 686" version="1.1" xmlns="http://www.w3.org/2000/svg" xmlns:xlink="http://www.w3.org/1999/xlink" xml:space="preserve" xmlns:serif="http://www.serif.com/" style="fill-rule:evenodd;clip-rule:evenodd;stroke-linecap:round;stroke-linejoin:round;stroke-miterlimit:1.5;">
    <g transform="matrix(0.978783,0,0,0.978783,-81.9423,-235.486)">
        <path d="M458.707,277.72C474.467,267.175 493.411,261.024 513.78,261.024C544.708,261.024 572.35,275.207 590.551,297.418C608.752,275.207 636.394,261.024 667.323,261.024C710.259,261.024 746.862,288.357 760.664,326.558C792.936,286.598 842.324,261.024 897.638,261.024C994.766,261.024 1073.62,339.88 1073.62,437.008C1073.62,516.345 1021.01,583.491 948.8,605.427C966.5,616.129 982.993,629.001 997.862,643.87C1046.37,692.379 1073.62,758.17 1073.62,826.771L1073.62,897.638C1073.62,910.032 1063.58,920.079 1051.18,920.079L744.094,920.079C733.686,920.079 724.933,912.993 722.395,903.382C706.635,913.927 687.692,920.079 667.323,920.079C636.394,920.079 608.752,905.896 590.551,883.684C572.35,905.896 544.708,920.079 513.78,920.079C470.843,920.079 434.24,892.745 420.438,854.544C388.167,894.504 338.779,920.079 283.465,920.079C186.336,920.079 107.48,841.223 107.48,744.094C107.48,664.757 160.094,597.612 232.303,575.675C214.603,564.973 198.11,552.101 183.24,537.232C134.732,488.724 107.48,422.932 107.48,354.331L107.48,283.465C107.48,271.071 117.527,261.024 129.921,261.024L437.008,261.024C447.416,261.024 456.169,268.109 458.707,277.72ZM400.815,612.992C407.896,619.335 414.461,626.243 420.438,633.645C423.084,626.323 426.567,619.4 430.772,612.992L400.815,612.992ZM414.567,513.78C414.567,470.29 414.567,408.759 414.567,360.236C414.567,338.635 414.567,319.612 414.567,305.906L152.362,305.906L152.362,354.331C152.362,411.029 174.885,465.404 214.977,505.496C255.068,545.587 309.444,568.11 366.141,568.11L414.567,568.11C414.567,568.11 414.567,545.85 414.567,513.78ZM568.11,820.866C568.11,790.88 543.765,766.535 513.78,766.535C483.794,766.535 459.449,790.88 459.449,820.866C459.449,850.852 483.794,875.197 513.78,875.197C543.765,875.197 568.11,850.852 568.11,820.866ZM721.654,820.866C721.654,790.88 697.309,766.535 667.323,766.535C637.337,766.535 612.992,790.88 612.992,820.866C612.992,850.852 637.337,875.197 667.323,875.197C697.309,875.197 721.654,850.852 721.654,820.866ZM780.287,568.11C773.206,561.767 766.642,554.859 760.664,547.457C758.018,554.78 754.535,561.703 750.33,568.11L780.287,568.11ZM766.535,667.323C766.535,714.216 766.535,773.973 766.535,820.866C766.535,842.589 766.535,861.552 766.535,875.197L1028.74,875.197L1028.74,826.771C1028.74,770.073 1006.22,715.698 966.126,675.607C926.034,635.515 871.659,612.992 814.961,612.992L766.535,612.992C766.535,626.637 766.535,645.6 766.535,667.323ZM612.992,360.236C612.992,390.222 637.337,414.567 667.323,414.567C697.309,414.567 721.654,390.222 721.654,360.236C721.654,330.25 697.309,305.906 667.323,305.906C637.337,305.906 612.992,330.25 612.992,360.236ZM459.449,360.236C459.449,390.222 483.794,414.567 513.78,414.567C543.765,414.567 568.11,390.222 568.11,360.236C568.11,330.25 543.765,305.906 513.78,305.906C483.794,305.906 459.449,330.25 459.449,360.236ZM513.78,721.654C543.765,721.654 568.11,697.309 568.11,667.323C568.11,637.337 543.765,612.992 513.78,612.992C483.794,612.992 459.449,637.337 459.449,667.323C459.449,697.309 483.794,721.654 513.78,721.654ZM513.78,568.11C543.765,568.11 568.11,543.765 568.11,513.78C568.11,483.794 543.765,459.449 513.78,459.449C483.794,459.449 459.449,483.794 459.449,513.78C459.449,543.765 483.794,568.11 513.78,568.11ZM604.505,744.094C599.406,739.916 594.73,735.24 590.551,730.141C586.373,735.24 581.697,739.916 576.598,744.094C581.697,748.273 586.373,752.949 590.551,758.048C594.73,752.949 599.406,748.273 604.505,744.094ZM667.323,459.449C637.337,459.449 612.992,483.794 612.992,513.78C612.992,543.765 637.337,568.11 667.323,568.11C697.309,568.11 721.654,543.765 721.654,513.78C721.654,483.794 697.309,459.449 667.323,459.449ZM667.323,612.992C637.337,612.992 612.992,637.337 612.992,667.323C612.992,697.309 637.337,721.654 667.323,721.654C697.309,721.654 721.654,697.309 721.654,667.323C721.654,637.337 697.309,612.992 667.323,612.992ZM576.598,437.008C581.697,441.186 586.373,445.862 590.551,450.961C594.73,445.862 599.406,441.186 604.505,437.008C599.406,432.829 594.73,428.153 590.551,423.054C586.373,428.153 581.697,432.829 576.598,437.008ZM590.551,604.505C594.73,599.406 599.406,594.73 604.505,590.551C599.406,586.373 594.73,581.697 590.551,576.598C586.373,581.697 581.697,586.373 576.598,590.551C581.697,594.73 586.373,599.406 590.551,604.505ZM897.638,305.906C825.28,305.906 766.535,364.651 766.535,437.008C766.535,509.365 825.28,568.11 897.638,568.11C969.995,568.11 1028.74,509.365 1028.74,437.008C1028.74,364.651 969.995,305.906 897.638,305.906ZM283.465,612.992C211.107,612.992 152.362,671.737 152.362,744.094C152.362,816.452 211.107,875.197 283.465,875.197C355.822,875.197 414.567,816.452 414.567,744.094C414.567,671.737 355.822,612.992 283.465,612.992Z" style="fill:none;stroke:white;stroke-width:26.58px;"/>
    </g>
</svg>
